<svg width="32" height="33" viewBox="0 0 32 33" fill="none" xmlns="http://www.w3.org/2000/svg">
<g id="Add New">
<path id="Vector" d="M31.9999 17.5C31.9999 17.7652 31.8946 18.0196 31.707 18.2071C31.5195 18.3946 31.2652 18.5 30.9999 18.5H28.9999V20.5C28.9999 20.7652 28.8946 21.0196 28.707 21.2071C28.5195 21.3946 28.2652 21.5 27.9999 21.5C27.7347 21.5 27.4804 21.3946 27.2928 21.2071C27.1053 21.0196 26.9999 20.7652 26.9999 20.5V18.5H24.9999C24.7347 18.5 24.4804 18.3946 24.2928 18.2071C24.1053 18.0196 23.9999 17.7652 23.9999 17.5C23.9999 17.2348 24.1053 16.9804 24.2928 16.7929C24.4804 16.6053 24.7347 16.5 24.9999 16.5H26.9999V14.5C26.9999 14.2348 27.1053 13.9804 27.2928 13.7929C27.4804 13.6053 27.7347 13.5 27.9999 13.5C28.2652 13.5 28.5195 13.6053 28.707 13.7929C28.8946 13.9804 28.9999 14.2348 28.9999 14.5V16.5H30.9999C31.2652 16.5 31.5195 16.6053 31.707 16.7929C31.8946 16.9804 31.9999 17.2348 31.9999 17.5ZM18.0124 20.2C19.5759 19.2206 20.7783 17.759 21.438 16.0361C22.0977 14.3131 22.1789 12.4223 21.6693 10.6491C21.1598 8.87598 20.0872 7.31673 18.6134 6.20685C17.1397 5.09697 15.3449 4.4967 13.4999 4.4967C11.655 4.4967 9.86018 5.09697 8.38644 6.20685C6.9127 7.31673 5.84008 8.87598 5.33055 10.6491C4.82101 12.4223 4.90222 14.3131 5.56191 16.0361C6.22161 17.759 7.42397 19.2206 8.98744 20.2C6.26137 21.0488 3.83903 22.6681 2.01244 24.8625C1.88829 25.0068 1.80911 25.1844 1.78468 25.3732C1.76024 25.562 1.79162 25.7538 1.87494 25.925C1.95404 26.097 2.08093 26.2427 2.2405 26.3447C2.40007 26.4466 2.58558 26.5005 2.77494 26.5H24.2249C24.4143 26.5005 24.5998 26.4466 24.7594 26.3447C24.9189 26.2427 25.0458 26.097 25.1249 25.925C25.2083 25.7538 25.2396 25.562 25.2152 25.3732C25.1908 25.1844 25.1116 25.0068 24.9874 24.8625C23.1608 22.6681 20.7385 21.0488 18.0124 20.2Z" fill="#111827"/>
</g>
</svg>
