<svg width="32" height="33" viewBox="0 0 32 33" fill="none" xmlns="http://www.w3.org/2000/svg">
<path d="M24.2249 26.5H2.77494C2.58558 26.5005 2.40007 26.4466 2.2405 26.3447C2.08093 26.2427 1.95404 26.097 1.87494 25.925C1.79162 25.7538 1.76024 25.562 1.78468 25.3732C1.80911 25.1844 1.88829 25.0068 2.01244 24.8625C3.57504 22.9852 5.57362 21.5289 7.82537 20.6157C8.0293 20.7676 8.23982 20.9117 8.45656 21.0474L8.98744 20.2L8.69014 19.2452C8.45802 19.3175 8.22797 19.395 8.00013 19.4776L24.2249 26.5ZM24.2249 26.5C24.4143 26.5005 24.5998 26.4466 24.7594 26.3447M24.2249 26.5L24.7594 26.3447M24.7594 26.3447C24.9189 26.2427 25.0458 26.097 25.1249 25.925L24.7594 26.3447ZM17.4816 19.3525L15.6374 20.5078L17.7151 21.1548C20.2561 21.946 22.514 23.455 24.217 25.5H2.7829C4.48585 23.455 6.7438 21.946 9.28474 21.1548L11.3625 20.5078L9.51832 19.3525C8.13879 18.4883 7.07788 17.1987 6.4958 15.6785C5.91371 14.1582 5.84206 12.4899 6.29165 10.9253C6.74124 9.36077 7.68767 7.98497 8.98803 7.00566C10.2884 6.02635 11.8721 5.4967 13.4999 5.4967C15.1278 5.4967 16.7115 6.02635 18.0119 7.00566C19.3122 7.98497 20.2586 9.36077 20.7082 10.9253C21.1578 12.4899 21.0862 14.1582 20.5041 15.6785C19.922 17.1987 18.8611 18.4883 17.4816 19.3525Z" stroke="black" stroke-width="2"/>
</svg>
