<svg width="220" height="129" viewBox="0 0 220 129" fill="none" xmlns="http://www.w3.org/2000/svg">
<g clip-path="url(#clip0_33_2078)">
<g clip-path="url(#clip1_33_2078)">
<g clip-path="url(#clip2_33_2078)">
<g clip-path="url(#clip3_33_2078)">
<g clip-path="url(#clip4_33_2078)">
<g clip-path="url(#clip5_33_2078)">
<g clip-path="url(#clip6_33_2078)">
<g clip-path="url(#clip7_33_2078)">
<g clip-path="url(#clip8_33_2078)">
<path d="M37.9336 63.6838C38.0308 63.6838 38.0793 63.714 38.0793 63.7745L38.1765 63.6838C38.7597 63.3512 40.0719 63.1849 42.113 63.1849C43.3442 63.1849 44.8021 63.2454 46.4869 63.3663L48.3822 63.457L48.9654 63.5024C48.9654 63.6535 48.9978 63.9408 49.0626 64.364L49.9373 64.4094C49.9697 64.6815 50.0507 65.4978 50.1803 66.8582C50.3099 68.2187 50.3747 69.4583 50.3747 70.5769C50.3747 72.542 50.2451 74.0839 49.9859 75.2025V75.1572C49.6943 77.6665 48.4794 79.4291 46.3411 80.4449C44.2027 81.4547 41.5946 81.9596 38.5167 81.9596C36.3784 81.9596 34.509 81.4608 32.9085 80.4631C31.3015 79.4654 30.0703 78.12 29.215 76.427C28.3532 74.7339 27.9223 72.8595 27.9223 70.8036C27.5983 68.2641 27.4363 65.7699 27.4363 63.321V60.8721C27.4363 58.3325 27.6566 56.1316 28.0973 54.2692C28.5314 52.4129 29.5422 50.8348 31.1298 49.5347C32.7173 48.2347 35.0825 47.5847 38.2251 47.5847C40.3635 47.5847 42.3333 47.9989 44.1347 48.8273C45.9296 49.6617 47.3616 50.8257 48.4308 52.3192C49.5 53.8188 50.0345 55.5511 50.0345 57.5163C50.0345 57.6372 50.0345 57.9395 50.0345 58.4232C50.0345 58.907 49.9147 59.2698 49.6749 59.5116C49.4287 59.7535 49.0302 59.8744 48.4794 59.8744H46.6327C46.4059 59.8744 45.9944 59.8805 45.3983 59.8926C44.7956 59.9107 43.9597 59.8442 42.8906 59.693C42.8582 59.6023 42.8258 59.4814 42.7934 59.3302C42.761 59.1791 42.6897 59.0642 42.5796 58.9856C42.4629 58.913 42.2426 58.8465 41.9186 58.786C41.6594 58.0302 41.4488 57.486 41.2868 57.1535C41.1248 56.8209 40.8495 56.5337 40.4607 56.2918C40.0719 56.05 39.5211 55.929 38.8083 55.929C38.7435 55.929 38.5491 55.929 38.2251 55.929C37.9012 55.929 37.6517 56.0409 37.4767 56.2646C37.2953 56.4944 37.1236 56.8662 36.9616 57.3802C36.346 59.2849 36.0382 62.0663 36.0382 65.7245V67.6745C36.0382 68.9141 36.103 69.9874 36.2326 70.8943C36.3622 71.8013 36.6214 72.5874 37.0102 73.2525L37.5934 73.3886H37.5448C37.6744 73.4188 37.885 73.4339 38.1765 73.4339C39.0189 73.4339 39.7479 73.2979 40.3635 73.0258H40.3149C40.7685 72.8444 41.0924 72.5934 41.2868 72.273C41.4812 71.9585 41.6594 71.3478 41.8214 70.4408H40.8981C40.0881 70.4408 39.4563 70.3653 39.0027 70.2141C38.9379 69.8815 38.8666 69.6699 38.7889 69.5792C38.7046 69.4885 38.5913 69.428 38.4487 69.3978C38.2997 69.3676 38.1603 69.3373 38.0308 69.3071C37.9012 68.4001 37.8364 67.4478 37.8364 66.4501C37.8364 65.0291 37.8202 64.107 37.7878 63.6838H37.9336ZM38.2737 64.1826V64.228C38.3385 64.621 38.3709 64.9989 38.3709 65.3617C38.3709 65.7245 38.3709 65.9512 38.3709 66.0419V67.3117V67.9013C38.3709 68.3548 38.4033 68.7176 38.4681 68.9897C38.5329 69.0501 38.7111 69.0804 39.0027 69.0804L41.384 69.035H41.7242C41.9186 69.035 42.0579 69.0864 42.1422 69.1892C42.2199 69.298 42.2588 69.5187 42.2588 69.8513C42.2588 71.5141 41.8862 72.6025 41.141 73.1165C40.3959 73.6304 39.3753 73.8874 38.0793 73.8874C36.6862 73.8874 35.7466 73.2223 35.2606 71.892C34.7747 70.5618 34.5317 68.9141 34.5317 66.9489L34.5803 64.8175C34.5803 62.6105 34.7099 60.5456 34.9691 58.6228C35.2282 56.706 35.5846 55.536 36.0382 55.1127C36.2974 54.8709 36.5501 54.7197 36.7964 54.6592C37.0361 54.5988 37.3666 54.5685 37.7878 54.5685L39.0027 54.6139C39.8451 54.6139 40.5352 55.0069 41.073 55.793C41.6043 56.579 42.0158 57.4407 42.3074 58.3779C43.3118 58.4988 44.1541 58.5593 44.8345 58.5593C47.1672 58.5593 48.366 58.4837 48.4308 58.3325L48.4794 58.0604C48.5442 57.3953 48.5766 56.9116 48.5766 56.6093C48.5766 53.8883 47.6046 51.778 45.6607 50.2785C43.7168 48.785 41.2382 48.0382 38.2251 48.0382C35.1796 48.0382 32.8793 48.6429 31.3242 49.8522C29.9634 50.7592 29.0465 52.1862 28.5735 54.1332C28.107 56.0862 27.8737 58.257 27.8737 60.6454L27.9223 63.6838C27.9223 67.0396 28.0843 69.8574 28.4083 72.1369C28.7323 74.4225 29.6006 76.4028 31.0132 78.0777C32.4193 79.7586 34.5965 80.5991 37.5448 80.5991C40.4283 80.5991 42.9068 80.1305 44.9803 79.1933C47.0538 78.2561 48.2364 76.5933 48.528 74.2048C48.7872 73.0862 48.9168 71.5746 48.9168 69.6699C48.9168 68.2792 48.7872 66.3745 48.528 63.9559L48.3822 63.9105L46.7784 63.8198C45.0289 63.6989 43.4414 63.6384 42.0158 63.6384C40.1367 63.6384 38.9379 63.7896 38.4195 64.0919L38.2737 64.1826ZM74.2365 50.4417C74.3985 53.6767 74.4795 56.5941 74.4795 59.1942C74.4795 64.4245 74.2041 69.3525 73.6533 73.9781C73.3293 76.3363 72.2602 78.2561 70.4458 79.7375C68.6315 81.2189 66.3798 81.9596 63.6907 81.9596C61.6495 81.9596 59.6894 81.6059 57.8103 80.8984C55.9311 80.1849 54.3922 79.1631 53.1934 77.8328C51.9947 76.5026 51.3629 74.9607 51.2981 73.2072C51.2981 71.0304 51.3305 67.7652 51.3953 63.4117C51.4925 60.0558 51.5411 56.6546 51.5411 53.2081C51.5411 51.0615 51.5249 49.5196 51.4925 48.5824C52.3025 48.5824 52.918 48.5673 53.3392 48.5371L55.3804 48.4917C56.9031 48.4917 58.2153 48.6429 59.3168 48.9452L59.2682 49.6254C59.3654 49.6557 59.5274 49.6859 59.7542 49.7161C59.981 49.7464 60.1592 49.7917 60.2888 49.8522C60.1592 52.1197 60.0944 54.8104 60.0944 57.9244C60.0944 62.2779 60.305 67.1152 60.7262 72.4362V72.3455C60.791 72.6781 60.9432 72.8958 61.183 72.9986C61.4292 73.1074 61.7467 73.1618 62.1355 73.1618C62.7511 73.1618 63.3019 72.9955 63.7879 72.663C64.2738 72.3304 64.5978 71.8618 64.7598 71.2571V71.3478C64.9218 67.9013 65.0028 63.7442 65.0028 58.8767C65.0676 54.4627 65.1324 51.1673 65.1972 48.9906C66.9468 48.7487 68.6153 48.6278 70.2028 48.6278C70.8832 48.6278 71.4502 48.664 71.9038 48.7366C72.3574 48.8152 72.7462 48.9603 73.0701 49.172L73.2645 49.5347V49.7615C73.6209 49.8522 73.8801 49.958 74.0421 50.0789L74.2365 50.4417ZM70.1056 49.0813C68.9069 49.0813 67.4327 49.1871 65.6832 49.3987C65.6508 50.6685 65.6184 52.2013 65.586 53.9971C65.5536 55.799 65.5374 57.1837 65.5374 58.1511C65.4726 64.0466 65.3754 68.4455 65.2458 71.3478C65.0838 72.0432 64.7015 72.5934 64.0989 72.9986C63.5028 73.4097 62.8483 73.6153 62.1355 73.6153C61.4875 73.6153 60.8946 73.44 60.3568 73.0893C59.8255 72.7446 59.4626 72.2397 59.2682 71.5746C58.847 66.8582 58.6364 62.0058 58.6364 57.0174C58.6364 54.1453 58.7012 51.5755 58.8308 49.308V49.2627C57.9561 49.051 56.8707 48.9452 55.5747 48.9452L53.5336 48.9906C53.1772 49.0208 52.6588 49.0359 51.9785 49.0359H51.9299L51.9785 49.0813L52.0271 53.3441C52.0271 56.6697 51.9785 60.0105 51.8813 63.3663C51.8165 67.7199 51.7841 71.0002 51.7841 73.2072C51.8165 74.8095 52.3673 76.17 53.4364 77.2886C54.5056 78.4072 55.8663 79.2386 57.5187 79.7828C59.171 80.327 60.9044 80.5991 62.7187 80.5991C65.4402 80.5991 67.6271 79.9189 69.2795 78.5584C70.9318 77.1979 71.9038 75.3537 72.1954 73.0258C72.7462 68.7629 73.0215 63.8501 73.0215 58.2872C73.0215 55.6872 72.9405 52.7697 72.7786 49.5347C72.2602 49.2324 71.3692 49.0813 70.1056 49.0813ZM99.5076 58.5593C99.5076 60.4942 98.9407 62.2991 97.8067 63.974C96.6727 65.655 95.1727 66.9852 93.3065 67.9648C91.4468 68.9504 89.4931 69.4432 87.4455 69.4432C86.9012 69.4432 86.4962 69.428 86.2306 69.3978V71.3025C86.2306 74.2048 86.2824 77.3491 86.3861 80.7352C86.0621 80.7352 85.6053 80.7805 85.0156 80.8712C84.7953 80.9015 84.3028 80.9559 83.5382 81.0345C82.7801 81.107 82.0576 81.1433 81.3707 81.1433C79.9128 81.1433 78.5067 81.0677 77.1524 80.9166C77.1524 80.4933 77.0876 80.2363 76.958 80.1456C76.8219 80.0549 76.5627 80.0096 76.1804 80.0096C76.0508 77.077 75.986 71.9071 75.986 64.5001V59.0128C75.986 53.9336 75.9374 50.2603 75.8402 47.9929C78.3026 47.358 80.8297 47.0405 83.4216 47.0405C86.1042 47.0405 88.6378 47.4547 91.0224 48.2831C93.4069 49.1175 95.3735 50.3964 96.9222 52.1197C98.4838 53.8429 99.3456 55.9744 99.5076 58.5139V58.5593ZM98.0497 57.607C97.8553 54.0999 96.3455 51.5392 93.5203 49.9248C90.7081 48.3043 87.3257 47.494 83.373 47.494C81.0662 47.494 78.7173 47.7812 76.3262 48.3557C76.4493 51.7418 76.5109 57.1081 76.5109 64.4547V72.4362C76.5109 74.9758 76.5627 77.3642 76.6664 79.6014C77.5347 79.7224 78.7788 79.7828 80.3988 79.7828C82.5436 79.7828 84.0015 79.6619 84.7726 79.42L84.9281 79.3293C84.8245 76.3967 84.7726 73.6153 84.7726 70.985V69.2164C84.7726 68.642 84.7597 68.2187 84.7337 67.9466C85.3169 68.0373 85.8969 68.0827 86.4736 68.0827C88.2944 68.0827 90.1022 67.6443 91.8971 66.7675C93.6985 65.8908 95.1727 64.6966 96.3196 63.1849C97.473 61.6733 98.0497 60.0407 98.0497 58.2872V57.607ZM91.0515 58.3325C91.0515 59.6628 90.5072 60.5093 89.4186 60.8721C88.3365 61.2349 86.8883 61.4314 85.0739 61.4617L84.0048 61.507H83.859C83.5998 60.7512 83.4702 59.5116 83.4702 57.7883C83.4702 56.3674 83.454 55.3395 83.4216 54.7046C83.616 54.5232 84.2964 54.4325 85.4627 54.4325C87.0827 54.4325 88.4434 54.8558 89.545 55.7023C90.031 55.9744 90.4035 56.3432 90.6627 56.8088C90.9219 57.2804 91.0515 57.7883 91.0515 58.3325ZM86.4347 55.793C85.8126 55.793 85.2942 55.8534 84.8795 55.9744C84.9119 56.4279 84.9281 57.0779 84.9281 57.9244V59.2395V60.0105C84.9281 60.464 84.9573 60.7965 85.0156 61.0082H85.2586C86.8202 61.0082 88.0935 60.8328 89.0784 60.4821C90.0698 60.1375 90.5655 59.4058 90.5655 58.2872C90.5655 57.4104 90.1444 56.7755 89.302 56.3825C88.4596 55.9895 87.5038 55.793 86.4347 55.793ZM122.193 59.7384C120.768 59.95 119.439 60.0558 118.208 60.0558C116.686 60.0558 115.357 59.9047 114.223 59.6023C114.256 59.5116 114.272 59.2849 114.272 58.9221C113.818 58.8616 113.478 58.786 113.251 58.6953C113.284 58.6046 113.3 58.4081 113.3 58.1058C113.3 57.4709 113.138 57.0476 112.814 56.836C112.49 56.6244 112.036 56.5186 111.453 56.5186C110.805 56.5186 110.254 56.7 109.801 57.0628C109.347 57.4256 109.12 57.9546 109.12 58.65C109.12 59.1337 109.234 59.4421 109.461 59.5751C109.687 59.7142 109.963 59.7988 110.287 59.8291C110.611 59.8593 110.838 59.8895 110.967 59.9198C112.976 60.1919 114.881 60.9084 116.682 62.0693C118.477 63.2363 119.919 64.6422 121.008 66.2868C122.09 67.9376 122.631 69.6094 122.631 71.3025C122.631 73.3281 122.145 75.1118 121.173 76.6537C120.201 78.1956 118.915 79.3838 117.314 80.2182C115.707 81.0466 113.964 81.4608 112.085 81.4608C109.947 81.4608 107.841 81.0163 105.767 80.1275C103.694 79.2326 102.002 78.0051 100.693 76.4451C99.378 74.8911 98.7203 73.192 98.7203 71.3478L98.7689 70.7583V70.1234C99.6437 70.0025 100.583 69.942 101.588 69.942L104.406 69.9874C105.054 70.0176 105.978 70.0327 107.176 70.0327C107.176 70.3653 107.225 70.6676 107.322 70.9397H108.148C108.148 71.6955 108.327 72.2155 108.683 72.4997C109.039 72.7899 109.574 72.9351 110.287 72.9351C111 72.9351 111.599 72.7537 112.085 72.3909C112.571 72.0281 112.814 71.5141 112.814 70.849C112.814 69.9118 112.441 69.2618 111.696 68.899C110.951 68.5362 110.19 68.2852 109.412 68.1462C108.634 68.0131 108.132 67.9315 107.905 67.9013L107.176 67.7652C106.204 67.5838 105.395 67.2875 104.747 66.8764C104.099 66.4713 103.402 65.921 102.657 65.2257C100.389 63.2 99.2549 60.7965 99.2549 58.0151C99.2549 56.1407 99.7571 54.4174 100.761 52.8453C101.766 51.2731 103.136 50.0245 104.873 49.0994C106.603 48.1803 108.521 47.7208 110.627 47.7208C112.798 47.7208 114.816 48.0987 116.682 48.8545C118.542 49.6103 120.039 50.6987 121.173 52.1197C122.307 53.5406 122.874 55.2185 122.874 57.1535C122.874 57.9093 122.777 58.7709 122.582 59.7384H122.193ZM121.173 58.3779C121.335 57.5314 121.416 56.8209 121.416 56.2465C121.416 53.5557 120.389 51.5362 118.335 50.1878C116.274 48.8454 113.705 48.1743 110.627 48.1743C108.586 48.1743 106.739 48.6126 105.087 49.4894C103.434 50.3662 102.132 51.5604 101.179 53.072C100.22 54.5837 99.7409 56.2313 99.7409 58.0151C99.7409 59.0732 99.9839 60.213 100.47 61.4344C100.956 62.6619 101.701 63.7442 102.705 64.6815C103.71 65.6187 104.909 66.1931 106.302 66.4047C106.593 66.4652 107.436 66.6224 108.829 66.8764C110.222 67.1364 111.317 67.5989 112.114 68.2641C112.905 68.9292 113.3 69.7908 113.3 70.849C113.3 71.6955 113.008 72.3304 112.425 72.7537C111.842 73.1769 111.129 73.3886 110.287 73.3886C109.347 73.3886 108.531 73.1376 107.837 72.6358C107.138 72.1399 106.755 71.4234 106.69 70.4862C105.686 70.4862 104.925 70.4711 104.406 70.4408L101.782 70.3955C100.875 70.3955 100.032 70.4408 99.2549 70.5315V71.3025C99.2549 73.0862 99.8381 74.6432 101.004 75.9735C102.171 77.3037 103.671 78.3226 105.505 79.03C107.332 79.7435 109.218 80.1003 111.162 80.1003C112.943 80.1003 114.596 79.7284 116.119 78.9847C117.641 78.247 118.866 77.1435 119.793 75.6742C120.713 74.2109 121.173 72.4665 121.173 70.4408C121.173 68.778 120.703 67.212 119.763 65.7426C118.824 64.2794 117.57 63.064 116.002 62.0965C114.427 61.1291 112.733 60.5547 110.919 60.3733C108.748 60.1616 107.662 59.2698 107.662 57.6976C107.662 56.8814 107.938 56.2525 108.489 55.8111C109.039 55.3758 109.704 55.1581 110.481 55.1581C111.388 55.1581 112.182 55.3999 112.862 55.8837C113.543 56.3674 113.883 57.0023 113.883 57.7883C113.883 58.0604 113.867 58.2418 113.834 58.3325C114.904 58.6046 116.021 58.7407 117.188 58.7407C118.192 58.7407 119.504 58.6198 121.124 58.3779H121.173ZM146.492 80.9166C145.261 81.1282 143.658 81.234 141.681 81.234C140.321 81.234 139.332 81.2491 138.717 81.2794L138.571 80.327C138.182 80.327 137.907 80.3421 137.745 80.3724C137.518 78.77 137.372 76.4572 137.307 73.4339C137.243 71.2269 137.162 69.5943 137.064 68.5362C136.352 68.4757 135.914 68.4455 135.752 68.4455C134.813 68.4455 133.954 68.5211 133.177 68.6722C133.144 69.1257 133.128 69.8664 133.128 70.8943L133.177 73.6153C133.209 74.22 133.225 75.1118 133.225 76.2909C133.225 78.1956 133.112 79.677 132.885 80.7352C132.302 81.0677 131.508 81.234 130.504 81.234C130.115 81.234 129.532 81.2038 128.754 81.1433C127.977 81.0829 127.458 81.0526 127.199 81.0526C126.616 81.0526 126.016 81.2038 125.401 81.5061L125.304 80.2363C125.012 80.2968 124.72 80.4177 124.429 80.5991C124.234 78.4526 124.056 74.5132 123.894 68.7811C123.732 63.0549 123.651 57.8186 123.651 53.072C123.651 50.5022 123.667 48.7336 123.7 47.7661L124.429 47.7208C124.882 47.8115 125.32 47.8568 125.741 47.8568C126.065 47.8568 126.616 47.8266 127.393 47.7661C128.301 47.7057 129.013 47.6754 129.532 47.6754C129.92 47.6754 130.244 47.745 130.504 47.884C130.763 48.0171 130.941 48.2801 131.038 48.6731C131.233 48.7033 131.404 48.7336 131.553 48.7638C131.696 48.794 131.816 48.8243 131.913 48.8545C132.043 49.9127 132.14 51.4545 132.205 53.4801C132.334 56.3523 132.545 58.5139 132.836 59.9651H133.371C134.375 59.9651 135.282 59.9047 136.092 59.7837H136.433C136.627 57.607 136.724 55.4604 136.724 53.3441C136.724 50.9859 136.676 49.2022 136.578 47.9929C138.134 47.5696 139.997 47.358 142.167 47.358H142.848C143.366 47.358 143.82 47.3882 144.208 47.4487V48.3103C144.597 48.3103 144.921 48.3254 145.18 48.3557L146.492 80.9166ZM143.722 47.8568C143.366 47.8266 142.848 47.8115 142.167 47.8115C140.061 47.8115 138.36 47.9929 137.064 48.3557C137.162 50.1696 137.21 51.8476 137.21 53.3895C137.21 55.5965 137.097 57.8639 136.87 60.1919H136.821C135.687 60.343 134.57 60.4186 133.468 60.4186C132.691 60.4186 132.059 60.3582 131.573 60.2372H131.524C131.233 58.8163 131.022 56.6697 130.892 53.7976C130.828 51.6813 130.698 49.8522 130.504 48.3103C130.082 48.1894 129.499 48.1289 128.754 48.1289L127.442 48.1743L125.838 48.265L125.401 48.3103C125.044 48.3103 124.688 48.265 124.332 48.1743L124.186 48.2196C124.153 49.1871 124.137 50.8045 124.137 53.072C124.137 57.879 124.212 63.0035 124.361 68.4455C124.503 73.8874 124.672 77.6816 124.866 79.8282C125.093 79.7073 125.449 79.6468 125.935 79.6468C126.324 79.6468 126.907 79.677 127.685 79.7375C128.365 79.8282 129.013 79.8735 129.629 79.8735C130.082 79.8735 130.449 79.8584 130.727 79.8282C130.999 79.7979 131.249 79.7073 131.476 79.5561C131.638 78.4979 131.719 77.1979 131.719 75.656C131.719 74.4769 131.702 73.5851 131.67 72.9804L131.621 70.3501C131.621 69.3827 131.67 68.4001 131.767 67.4024C132.642 67.1908 133.63 67.085 134.732 67.085C135.477 67.085 136.368 67.1606 137.405 67.3117L137.453 67.3571C137.615 68.5966 137.729 70.5618 137.793 73.2525C137.793 76.0339 137.923 78.241 138.182 79.8735H138.231C138.49 79.8433 138.96 79.8282 139.64 79.8282H141.39C142.88 79.8282 144.095 79.7526 145.035 79.6014L143.722 47.8568ZM169.285 81.1433C167.989 81.3549 166.952 81.4608 166.175 81.4608C164.684 81.4608 163.227 81.3096 161.801 81.0073C161.671 80.6445 161.558 80.4177 161.461 80.327C161.364 80.2363 161.25 80.1849 161.121 80.1728C160.991 80.1547 160.894 80.1305 160.829 80.1003C160.57 79.3445 160.213 78.12 159.76 76.427C159.501 75.4293 159.28 74.7037 159.099 74.2502C158.924 73.7967 158.739 73.57 158.545 73.57C158.286 73.57 158.065 73.576 157.884 73.5881C157.709 73.6062 157.476 73.6153 157.184 73.6153C156.957 74.1897 156.731 75.1118 156.504 76.3816C156.245 77.5607 156.018 78.4979 155.823 79.1933C155.629 79.8886 155.354 80.5538 154.997 81.1887C154.9 81.1887 154.761 81.2038 154.579 81.234C154.404 81.2642 154.187 81.2794 153.928 81.2794C153.572 81.2491 152.826 81.234 151.693 81.234L149.603 81.1887L147.027 81.1433L147.173 80.2363H146.055L146.735 76.8805C147.643 71.9827 148.631 67.1515 149.7 62.3868C150.769 57.6281 152.114 52.7394 153.734 47.7208C154.317 47.6603 154.657 47.6301 154.754 47.6301C154.884 47.6301 155.305 47.6452 156.018 47.6754C156.731 47.7057 158.221 47.615 160.489 47.4033C160.618 47.9173 160.699 48.2498 160.732 48.401L161.461 48.3103C161.752 49.8522 162.773 54.0243 164.522 60.8268C165.17 63.3059 165.511 64.621 165.543 64.7722L169.285 81.1433ZM164.085 63.9559L160.1 47.9022C158.674 48.0231 157.265 48.0836 155.872 48.0836H154.851C154.463 48.0836 154.22 48.0987 154.122 48.1289C152.567 52.9964 151.278 57.7279 150.254 62.3233C149.237 66.9187 148.226 71.8164 147.221 77.0165C147.124 77.5909 147.027 78.1261 146.93 78.6219C146.833 79.1238 146.752 79.5107 146.687 79.7828L146.784 79.8282H147.95L151.79 79.8735C152.114 79.9038 152.502 79.9189 152.956 79.9189C153.312 79.9189 153.523 79.9038 153.588 79.8735L153.734 79.8282C154.025 79.3747 154.252 78.8305 154.414 78.1956C154.576 77.5607 154.754 76.7142 154.949 75.656C155.273 73.963 155.58 72.8293 155.872 72.2548C156.228 72.2548 156.52 72.2458 156.747 72.2276C156.974 72.2155 157.152 72.2095 157.281 72.2095H157.913L158.885 72.3002C159.144 72.8444 159.41 73.6002 159.682 74.5676C159.961 75.5351 160.132 76.1398 160.197 76.3816C160.521 77.8026 160.845 78.9061 161.169 79.6921H161.218C162.481 79.9642 163.81 80.1003 165.203 80.1003C166.013 80.1003 166.855 80.0247 167.73 79.8735V79.8282L164.085 63.9559ZM156.698 66.9489L155.532 66.9036C155.921 64.2129 156.099 62.9884 156.066 63.2303C156.326 61.2047 156.543 59.7293 156.718 58.8042C156.899 57.8851 157.087 57.4256 157.281 57.4256C157.508 57.4256 157.758 58.136 158.03 59.557C158.308 60.9779 158.674 63.4268 159.128 66.9036L156.698 66.9489ZM158.545 66.4501L157.913 61.2803L157.136 66.4501H158.545ZM192.564 58.5593C192.564 60.4942 191.997 62.2991 190.863 63.974C189.729 65.655 188.229 66.9852 186.363 67.9648C184.503 68.9504 182.552 69.4432 180.511 69.4432C179.961 69.4432 179.556 69.428 179.296 69.3978V71.3025C179.296 74.2048 179.345 77.3491 179.442 80.7352C179.118 80.7352 178.665 80.7805 178.081 80.8712C177.855 80.9015 177.359 80.9559 176.594 81.0345C175.836 81.107 175.117 81.1433 174.437 81.1433C172.979 81.1433 171.569 81.0677 170.208 80.9166C170.208 80.4933 170.144 80.2363 170.014 80.1456C169.884 80.0549 169.625 80.0096 169.237 80.0096C169.107 77.077 169.042 71.9071 169.042 64.5001V59.0128C169.042 53.9336 168.994 50.2603 168.896 47.9929C171.359 47.358 173.886 47.0405 176.478 47.0405C179.167 47.0405 181.7 47.4547 184.078 48.2831C186.463 49.1175 188.433 50.3964 189.988 52.1197C191.543 53.8429 192.402 55.9744 192.564 58.5139V58.5593ZM191.106 57.607C190.911 54.0999 189.405 51.5392 186.586 49.9248C183.767 48.3043 180.382 47.494 176.429 47.494C174.129 47.494 171.78 47.7812 169.382 48.3557C169.512 51.7418 169.577 57.1081 169.577 64.4547V72.4362C169.577 74.9758 169.625 77.3642 169.722 79.6014C170.597 79.7224 171.845 79.7828 173.465 79.7828C175.603 79.7828 177.061 79.6619 177.838 79.42L177.984 79.3293C177.887 76.3967 177.838 73.6153 177.838 70.985V69.2164C177.838 68.642 177.822 68.2187 177.79 67.9466C178.373 68.0373 178.956 68.0827 179.539 68.0827C181.354 68.0827 183.158 67.6443 184.953 66.7675C186.755 65.8908 188.229 64.6966 189.376 63.1849C190.529 61.6733 191.106 60.0407 191.106 58.2872V57.607ZM184.108 58.3325C184.108 59.6628 183.563 60.5093 182.475 60.8721C181.393 61.2349 179.944 61.4314 178.13 61.4617L177.061 61.507H176.915C176.656 60.7512 176.526 59.5116 176.526 57.7883C176.526 56.3674 176.51 55.3395 176.478 54.7046C176.672 54.5232 177.352 54.4325 178.519 54.4325C180.139 54.4325 181.499 54.8558 182.601 55.7023C183.087 55.9744 183.46 56.3432 183.719 56.8088C183.978 57.2804 184.108 57.7883 184.108 58.3325ZM179.491 55.793C178.875 55.793 178.357 55.8534 177.936 55.9744C177.968 56.4279 177.984 57.0779 177.984 57.9244V59.2395V60.0105C177.984 60.464 178.017 60.7965 178.081 61.0082H178.324C179.88 61.0082 181.15 60.8328 182.134 60.4821C183.126 60.1375 183.622 59.4058 183.622 58.2872C183.622 57.4104 183.2 56.7755 182.358 56.3825C181.516 55.9895 180.56 55.793 179.491 55.793Z" fill="black"/>
</g>
</g>
</g>
</g>
</g>
</g>
<mask id="mask0_33_2078" style="mask-type:luminance" maskUnits="userSpaceOnUse" x="0" y="0" width="356" height="208">
<path d="M355.595 0.448242H0.17514V207.736H355.595V0.448242Z" fill="white"/>
<g clip-path="url(#clip9_33_2078)">
<g clip-path="url(#clip10_33_2078)">
<g clip-path="url(#clip11_33_2078)">
<g clip-path="url(#clip12_33_2078)">
<g clip-path="url(#clip13_33_2078)">
<g clip-path="url(#clip14_33_2078)">
<g clip-path="url(#clip15_33_2078)">
<path d="M37.9336 63.6838C38.0308 63.6838 38.0793 63.714 38.0793 63.7745L38.1765 63.6838C38.7597 63.3512 40.0719 63.1849 42.113 63.1849C43.3442 63.1849 44.8021 63.2454 46.4869 63.3663L48.3822 63.457L48.9654 63.5024C48.9654 63.6535 48.9978 63.9408 49.0626 64.364L49.9373 64.4094C49.9697 64.6815 50.0507 65.4978 50.1803 66.8582C50.3099 68.2187 50.3747 69.4583 50.3747 70.5769C50.3747 72.542 50.2451 74.0839 49.9859 75.2025V75.1572C49.6943 77.6665 48.4794 79.4291 46.3411 80.4449C44.2027 81.4547 41.5946 81.9596 38.5167 81.9596C36.3784 81.9596 34.509 81.4608 32.9085 80.4631C31.3015 79.4654 30.0703 78.12 29.215 76.427C28.3532 74.7339 27.9223 72.8595 27.9223 70.8036C27.5983 68.2641 27.4363 65.7699 27.4363 63.321V60.8721C27.4363 58.3325 27.6566 56.1316 28.0973 54.2692C28.5314 52.4129 29.5422 50.8348 31.1298 49.5347C32.7173 48.2347 35.0825 47.5847 38.2251 47.5847C40.3635 47.5847 42.3333 47.9989 44.1347 48.8273C45.9296 49.6617 47.3616 50.8257 48.4308 52.3192C49.5 53.8188 50.0345 55.5511 50.0345 57.5163C50.0345 57.6372 50.0345 57.9395 50.0345 58.4232C50.0345 58.907 49.9147 59.2698 49.6749 59.5116C49.4287 59.7535 49.0302 59.8744 48.4794 59.8744H46.6327C46.4059 59.8744 45.9944 59.8805 45.3983 59.8926C44.7956 59.9107 43.9597 59.8442 42.8906 59.693C42.8582 59.6023 42.8258 59.4814 42.7934 59.3302C42.761 59.1791 42.6897 59.0642 42.5796 58.9856C42.4629 58.913 42.2426 58.8465 41.9186 58.786C41.6594 58.0302 41.4488 57.486 41.2868 57.1535C41.1248 56.8209 40.8495 56.5337 40.4607 56.2918C40.0719 56.05 39.5211 55.929 38.8083 55.929C38.7435 55.929 38.5491 55.929 38.2251 55.929C37.9012 55.929 37.6517 56.0409 37.4767 56.2646C37.2953 56.4944 37.1236 56.8662 36.9616 57.3802C36.346 59.2849 36.0382 62.0663 36.0382 65.7245V67.6745C36.0382 68.9141 36.103 69.9874 36.2326 70.8943C36.3622 71.8013 36.6214 72.5874 37.0102 73.2525L37.5934 73.3886H37.5448C37.6744 73.4188 37.885 73.4339 38.1765 73.4339C39.0189 73.4339 39.7479 73.2979 40.3635 73.0258H40.3149C40.7685 72.8444 41.0924 72.5934 41.2868 72.273C41.4812 71.9585 41.6594 71.3478 41.8214 70.4408H40.8981C40.0881 70.4408 39.4563 70.3653 39.0027 70.2141C38.9379 69.8815 38.8666 69.6699 38.7889 69.5792C38.7046 69.4885 38.5913 69.428 38.4487 69.3978C38.2997 69.3676 38.1603 69.3373 38.0308 69.3071C37.9012 68.4001 37.8364 67.4478 37.8364 66.4501C37.8364 65.0291 37.8202 64.107 37.7878 63.6838H37.9336ZM38.2737 64.1826V64.228C38.3385 64.621 38.3709 64.9989 38.3709 65.3617C38.3709 65.7245 38.3709 65.9512 38.3709 66.0419V67.3117V67.9013C38.3709 68.3548 38.4033 68.7176 38.4681 68.9897C38.5329 69.0501 38.7111 69.0804 39.0027 69.0804L41.384 69.035H41.7242C41.9186 69.035 42.0579 69.0864 42.1422 69.1892C42.2199 69.298 42.2588 69.5187 42.2588 69.8513C42.2588 71.5141 41.8862 72.6025 41.141 73.1165C40.3959 73.6304 39.3753 73.8874 38.0793 73.8874C36.6862 73.8874 35.7466 73.2223 35.2606 71.892C34.7747 70.5618 34.5317 68.9141 34.5317 66.9489L34.5803 64.8175C34.5803 62.6105 34.7099 60.5456 34.9691 58.6228C35.2282 56.706 35.5846 55.536 36.0382 55.1127C36.2974 54.8709 36.5501 54.7197 36.7964 54.6592C37.0361 54.5988 37.3666 54.5685 37.7878 54.5685L39.0027 54.6139C39.8451 54.6139 40.5352 55.0069 41.073 55.793C41.6043 56.579 42.0158 57.4407 42.3074 58.3779C43.3118 58.4988 44.1541 58.5593 44.8345 58.5593C47.1672 58.5593 48.366 58.4837 48.4308 58.3325L48.4794 58.0604C48.5442 57.3953 48.5766 56.9116 48.5766 56.6093C48.5766 53.8883 47.6046 51.778 45.6607 50.2785C43.7168 48.785 41.2382 48.0382 38.2251 48.0382C35.1796 48.0382 32.8793 48.6429 31.3242 49.8522C29.9634 50.7592 29.0465 52.1862 28.5735 54.1332C28.107 56.0862 27.8737 58.257 27.8737 60.6454L27.9223 63.6838C27.9223 67.0396 28.0843 69.8574 28.4083 72.1369C28.7323 74.4225 29.6006 76.4028 31.0132 78.0777C32.4193 79.7586 34.5965 80.5991 37.5448 80.5991C40.4283 80.5991 42.9068 80.1305 44.9803 79.1933C47.0538 78.2561 48.2364 76.5933 48.528 74.2048C48.7872 73.0862 48.9168 71.5746 48.9168 69.6699C48.9168 68.2792 48.7872 66.3745 48.528 63.9559L48.3822 63.9105L46.7784 63.8198C45.0289 63.6989 43.4414 63.6384 42.0158 63.6384C40.1367 63.6384 38.9379 63.7896 38.4195 64.0919L38.2737 64.1826ZM74.2365 50.4417C74.3985 53.6767 74.4795 56.5941 74.4795 59.1942C74.4795 64.4245 74.2041 69.3525 73.6533 73.9781C73.3293 76.3363 72.2602 78.2561 70.4458 79.7375C68.6315 81.2189 66.3798 81.9596 63.6907 81.9596C61.6495 81.9596 59.6894 81.6059 57.8103 80.8984C55.9311 80.1849 54.3922 79.1631 53.1934 77.8328C51.9947 76.5026 51.3629 74.9607 51.2981 73.2072C51.2981 71.0304 51.3305 67.7652 51.3953 63.4117C51.4925 60.0558 51.5411 56.6546 51.5411 53.2081C51.5411 51.0615 51.5249 49.5196 51.4925 48.5824C52.3025 48.5824 52.918 48.5673 53.3392 48.5371L55.3804 48.4917C56.9031 48.4917 58.2153 48.6429 59.3168 48.9452L59.2682 49.6254C59.3654 49.6557 59.5274 49.6859 59.7542 49.7161C59.981 49.7464 60.1592 49.7917 60.2888 49.8522C60.1592 52.1197 60.0944 54.8104 60.0944 57.9244C60.0944 62.2779 60.305 67.1152 60.7262 72.4362V72.3455C60.791 72.6781 60.9432 72.8958 61.183 72.9986C61.4292 73.1074 61.7467 73.1618 62.1355 73.1618C62.7511 73.1618 63.3019 72.9955 63.7879 72.663C64.2738 72.3304 64.5978 71.8618 64.7598 71.2571V71.3478C64.9218 67.9013 65.0028 63.7442 65.0028 58.8767C65.0676 54.4627 65.1324 51.1673 65.1972 48.9906C66.9468 48.7487 68.6153 48.6278 70.2028 48.6278C70.8832 48.6278 71.4502 48.664 71.9038 48.7366C72.3574 48.8152 72.7462 48.9603 73.0701 49.172L73.2645 49.5347V49.7615C73.6209 49.8522 73.8801 49.958 74.0421 50.0789L74.2365 50.4417ZM70.1056 49.0813C68.9069 49.0813 67.4327 49.1871 65.6832 49.3987C65.6508 50.6685 65.6184 52.2013 65.586 53.9971C65.5536 55.799 65.5374 57.1837 65.5374 58.1511C65.4726 64.0466 65.3754 68.4455 65.2458 71.3478C65.0838 72.0432 64.7015 72.5934 64.0989 72.9986C63.5028 73.4097 62.8483 73.6153 62.1355 73.6153C61.4875 73.6153 60.8946 73.44 60.3568 73.0893C59.8255 72.7446 59.4626 72.2397 59.2682 71.5746C58.847 66.8582 58.6364 62.0058 58.6364 57.0174C58.6364 54.1453 58.7012 51.5755 58.8308 49.308V49.2627C57.9561 49.051 56.8707 48.9452 55.5747 48.9452L53.5336 48.9906C53.1772 49.0208 52.6588 49.0359 51.9785 49.0359H51.9299L51.9785 49.0813L52.0271 53.3441C52.0271 56.6697 51.9785 60.0105 51.8813 63.3663C51.8165 67.7199 51.7841 71.0002 51.7841 73.2072C51.8165 74.8095 52.3673 76.17 53.4364 77.2886C54.5056 78.4072 55.8663 79.2386 57.5187 79.7828C59.171 80.327 60.9044 80.5991 62.7187 80.5991C65.4402 80.5991 67.6271 79.9189 69.2795 78.5584C70.9318 77.1979 71.9038 75.3537 72.1954 73.0258C72.7462 68.7629 73.0215 63.8501 73.0215 58.2872C73.0215 55.6872 72.9405 52.7697 72.7786 49.5347C72.2602 49.2324 71.3692 49.0813 70.1056 49.0813ZM99.5076 58.5593C99.5076 60.4942 98.9407 62.2991 97.8067 63.974C96.6727 65.655 95.1727 66.9852 93.3065 67.9648C91.4468 68.9504 89.4931 69.4432 87.4455 69.4432C86.9012 69.4432 86.4962 69.428 86.2306 69.3978V71.3025C86.2306 74.2048 86.2824 77.3491 86.3861 80.7352C86.0621 80.7352 85.6053 80.7805 85.0156 80.8712C84.7953 80.9015 84.3028 80.9559 83.5382 81.0345C82.7801 81.107 82.0576 81.1433 81.3707 81.1433C79.9128 81.1433 78.5067 81.0677 77.1524 80.9166C77.1524 80.4933 77.0876 80.2363 76.958 80.1456C76.8219 80.0549 76.5627 80.0096 76.1804 80.0096C76.0508 77.077 75.986 71.9071 75.986 64.5001V59.0128C75.986 53.9336 75.9374 50.2603 75.8402 47.9929C78.3026 47.358 80.8297 47.0405 83.4216 47.0405C86.1042 47.0405 88.6378 47.4547 91.0224 48.2831C93.4069 49.1175 95.3735 50.3964 96.9222 52.1197C98.4838 53.8429 99.3456 55.9744 99.5076 58.5139V58.5593ZM98.0497 57.607C97.8553 54.0999 96.3455 51.5392 93.5203 49.9248C90.7081 48.3043 87.3257 47.494 83.373 47.494C81.0662 47.494 78.7173 47.7812 76.3262 48.3557C76.4493 51.7418 76.5109 57.1081 76.5109 64.4547V72.4362C76.5109 74.9758 76.5627 77.3642 76.6664 79.6014C77.5347 79.7224 78.7788 79.7828 80.3988 79.7828C82.5436 79.7828 84.0015 79.6619 84.7726 79.42L84.9281 79.3293C84.8245 76.3967 84.7726 73.6153 84.7726 70.985V69.2164C84.7726 68.642 84.7597 68.2187 84.7337 67.9466C85.3169 68.0373 85.8969 68.0827 86.4736 68.0827C88.2944 68.0827 90.1022 67.6443 91.8971 66.7675C93.6985 65.8908 95.1727 64.6966 96.3196 63.1849C97.473 61.6733 98.0497 60.0407 98.0497 58.2872V57.607ZM91.0515 58.3325C91.0515 59.6628 90.5072 60.5093 89.4186 60.8721C88.3365 61.2349 86.8883 61.4314 85.0739 61.4617L84.0048 61.507H83.859C83.5998 60.7512 83.4702 59.5116 83.4702 57.7883C83.4702 56.3674 83.454 55.3395 83.4216 54.7046C83.616 54.5232 84.2964 54.4325 85.4627 54.4325C87.0827 54.4325 88.4434 54.8558 89.545 55.7023C90.031 55.9744 90.4035 56.3432 90.6627 56.8088C90.9219 57.2804 91.0515 57.7883 91.0515 58.3325ZM86.4347 55.793C85.8126 55.793 85.2942 55.8534 84.8795 55.9744C84.9119 56.4279 84.9281 57.0779 84.9281 57.9244V59.2395V60.0105C84.9281 60.464 84.9573 60.7965 85.0156 61.0082H85.2586C86.8202 61.0082 88.0935 60.8328 89.0784 60.4821C90.0698 60.1375 90.5655 59.4058 90.5655 58.2872C90.5655 57.4104 90.1444 56.7755 89.302 56.3825C88.4596 55.9895 87.5038 55.793 86.4347 55.793ZM122.193 59.7384C120.768 59.95 119.439 60.0558 118.208 60.0558C116.686 60.0558 115.357 59.9047 114.223 59.6023C114.256 59.5116 114.272 59.2849 114.272 58.9221C113.818 58.8616 113.478 58.786 113.251 58.6953C113.284 58.6046 113.3 58.4081 113.3 58.1058C113.3 57.4709 113.138 57.0476 112.814 56.836C112.49 56.6244 112.036 56.5186 111.453 56.5186C110.805 56.5186 110.254 56.7 109.801 57.0628C109.347 57.4256 109.12 57.9546 109.12 58.65C109.12 59.1337 109.234 59.4421 109.461 59.5751C109.687 59.7142 109.963 59.7988 110.287 59.8291C110.611 59.8593 110.838 59.8895 110.967 59.9198C112.976 60.1919 114.881 60.9084 116.682 62.0693C118.477 63.2363 119.919 64.6422 121.008 66.2868C122.09 67.9376 122.631 69.6094 122.631 71.3025C122.631 73.3281 122.145 75.1118 121.173 76.6537C120.201 78.1956 118.915 79.3838 117.314 80.2182C115.707 81.0466 113.964 81.4608 112.085 81.4608C109.947 81.4608 107.841 81.0163 105.767 80.1275C103.694 79.2326 102.002 78.0051 100.693 76.4451C99.378 74.8911 98.7203 73.192 98.7203 71.3478L98.7689 70.7583V70.1234C99.6437 70.0025 100.583 69.942 101.588 69.942L104.406 69.9874C105.054 70.0176 105.978 70.0327 107.176 70.0327C107.176 70.3653 107.225 70.6676 107.322 70.9397H108.148C108.148 71.6955 108.327 72.2155 108.683 72.4997C109.039 72.7899 109.574 72.9351 110.287 72.9351C111 72.9351 111.599 72.7537 112.085 72.3909C112.571 72.0281 112.814 71.5141 112.814 70.849C112.814 69.9118 112.441 69.2618 111.696 68.899C110.951 68.5362 110.19 68.2852 109.412 68.1462C108.634 68.0131 108.132 67.9315 107.905 67.9013L107.176 67.7652C106.204 67.5838 105.395 67.2875 104.747 66.8764C104.099 66.4713 103.402 65.921 102.657 65.2257C100.389 63.2 99.2549 60.7965 99.2549 58.0151C99.2549 56.1407 99.7571 54.4174 100.761 52.8453C101.766 51.2731 103.136 50.0245 104.873 49.0994C106.603 48.1803 108.521 47.7208 110.627 47.7208C112.798 47.7208 114.816 48.0987 116.682 48.8545C118.542 49.6103 120.039 50.6987 121.173 52.1197C122.307 53.5406 122.874 55.2185 122.874 57.1535C122.874 57.9093 122.777 58.7709 122.582 59.7384H122.193ZM121.173 58.3779C121.335 57.5314 121.416 56.8209 121.416 56.2465C121.416 53.5557 120.389 51.5362 118.335 50.1878C116.274 48.8454 113.705 48.1743 110.627 48.1743C108.586 48.1743 106.739 48.6126 105.087 49.4894C103.434 50.3662 102.132 51.5604 101.179 53.072C100.22 54.5837 99.7409 56.2313 99.7409 58.0151C99.7409 59.0732 99.9839 60.213 100.47 61.4344C100.956 62.6619 101.701 63.7442 102.705 64.6815C103.71 65.6187 104.909 66.1931 106.302 66.4047C106.593 66.4652 107.436 66.6224 108.829 66.8764C110.222 67.1364 111.317 67.5989 112.114 68.2641C112.905 68.9292 113.3 69.7908 113.3 70.849C113.3 71.6955 113.008 72.3304 112.425 72.7537C111.842 73.1769 111.129 73.3886 110.287 73.3886C109.347 73.3886 108.531 73.1376 107.837 72.6358C107.138 72.1399 106.755 71.4234 106.69 70.4862C105.686 70.4862 104.925 70.4711 104.406 70.4408L101.782 70.3955C100.875 70.3955 100.032 70.4408 99.2549 70.5315V71.3025C99.2549 73.0862 99.8381 74.6432 101.004 75.9735C102.171 77.3037 103.671 78.3226 105.505 79.03C107.332 79.7435 109.218 80.1003 111.162 80.1003C112.943 80.1003 114.596 79.7284 116.119 78.9847C117.641 78.247 118.866 77.1435 119.793 75.6742C120.713 74.2109 121.173 72.4665 121.173 70.4408C121.173 68.778 120.703 67.212 119.763 65.7426C118.824 64.2794 117.57 63.064 116.002 62.0965C114.427 61.1291 112.733 60.5547 110.919 60.3733C108.748 60.1616 107.662 59.2698 107.662 57.6976C107.662 56.8814 107.938 56.2525 108.489 55.8111C109.039 55.3758 109.704 55.1581 110.481 55.1581C111.388 55.1581 112.182 55.3999 112.862 55.8837C113.543 56.3674 113.883 57.0023 113.883 57.7883C113.883 58.0604 113.867 58.2418 113.834 58.3325C114.904 58.6046 116.021 58.7407 117.188 58.7407C118.192 58.7407 119.504 58.6198 121.124 58.3779H121.173ZM146.492 80.9166C145.261 81.1282 143.658 81.234 141.681 81.234C140.321 81.234 139.332 81.2491 138.717 81.2794L138.571 80.327C138.182 80.327 137.907 80.3421 137.745 80.3724C137.518 78.77 137.372 76.4572 137.307 73.4339C137.243 71.2269 137.162 69.5943 137.064 68.5362C136.352 68.4757 135.914 68.4455 135.752 68.4455C134.813 68.4455 133.954 68.5211 133.177 68.6722C133.144 69.1257 133.128 69.8664 133.128 70.8943L133.177 73.6153C133.209 74.22 133.225 75.1118 133.225 76.2909C133.225 78.1956 133.112 79.677 132.885 80.7352C132.302 81.0677 131.508 81.234 130.504 81.234C130.115 81.234 129.532 81.2038 128.754 81.1433C127.977 81.0829 127.458 81.0526 127.199 81.0526C126.616 81.0526 126.016 81.2038 125.401 81.5061L125.304 80.2363C125.012 80.2968 124.72 80.4177 124.429 80.5991C124.234 78.4526 124.056 74.5132 123.894 68.7811C123.732 63.0549 123.651 57.8186 123.651 53.072C123.651 50.5022 123.667 48.7336 123.7 47.7661L124.429 47.7208C124.882 47.8115 125.32 47.8568 125.741 47.8568C126.065 47.8568 126.616 47.8266 127.393 47.7661C128.301 47.7057 129.013 47.6754 129.532 47.6754C129.92 47.6754 130.244 47.745 130.504 47.884C130.763 48.0171 130.941 48.2801 131.038 48.6731C131.233 48.7033 131.404 48.7336 131.553 48.7638C131.696 48.794 131.816 48.8243 131.913 48.8545C132.043 49.9127 132.14 51.4545 132.205 53.4801C132.334 56.3523 132.545 58.5139 132.836 59.9651H133.371C134.375 59.9651 135.282 59.9047 136.092 59.7837H136.433C136.627 57.607 136.724 55.4604 136.724 53.3441C136.724 50.9859 136.676 49.2022 136.578 47.9929C138.134 47.5696 139.997 47.358 142.167 47.358H142.848C143.366 47.358 143.82 47.3882 144.208 47.4487V48.3103C144.597 48.3103 144.921 48.3254 145.18 48.3557L146.492 80.9166ZM143.722 47.8568C143.366 47.8266 142.848 47.8115 142.167 47.8115C140.061 47.8115 138.36 47.9929 137.064 48.3557C137.162 50.1696 137.21 51.8476 137.21 53.3895C137.21 55.5965 137.097 57.8639 136.87 60.1919H136.821C135.687 60.343 134.57 60.4186 133.468 60.4186C132.691 60.4186 132.059 60.3582 131.573 60.2372H131.524C131.233 58.8163 131.022 56.6697 130.892 53.7976C130.828 51.6813 130.698 49.8522 130.504 48.3103C130.082 48.1894 129.499 48.1289 128.754 48.1289L127.442 48.1743L125.838 48.265L125.401 48.3103C125.044 48.3103 124.688 48.265 124.332 48.1743L124.186 48.2196C124.153 49.1871 124.137 50.8045 124.137 53.072C124.137 57.879 124.212 63.0035 124.361 68.4455C124.503 73.8874 124.672 77.6816 124.866 79.8282C125.093 79.7073 125.449 79.6468 125.935 79.6468C126.324 79.6468 126.907 79.677 127.685 79.7375C128.365 79.8282 129.013 79.8735 129.629 79.8735C130.082 79.8735 130.449 79.8584 130.727 79.8282C130.999 79.7979 131.249 79.7073 131.476 79.5561C131.638 78.4979 131.719 77.1979 131.719 75.656C131.719 74.4769 131.702 73.5851 131.67 72.9804L131.621 70.3501C131.621 69.3827 131.67 68.4001 131.767 67.4024C132.642 67.1908 133.63 67.085 134.732 67.085C135.477 67.085 136.368 67.1606 137.405 67.3117L137.453 67.3571C137.615 68.5966 137.729 70.5618 137.793 73.2525C137.793 76.0339 137.923 78.241 138.182 79.8735H138.231C138.49 79.8433 138.96 79.8282 139.64 79.8282H141.39C142.88 79.8282 144.095 79.7526 145.035 79.6014L143.722 47.8568ZM169.285 81.1433C167.989 81.3549 166.952 81.4608 166.175 81.4608C164.684 81.4608 163.227 81.3096 161.801 81.0073C161.671 80.6445 161.558 80.4177 161.461 80.327C161.364 80.2363 161.25 80.1849 161.121 80.1728C160.991 80.1547 160.894 80.1305 160.829 80.1003C160.57 79.3445 160.213 78.12 159.76 76.427C159.501 75.4293 159.28 74.7037 159.099 74.2502C158.924 73.7967 158.739 73.57 158.545 73.57C158.286 73.57 158.065 73.576 157.884 73.5881C157.709 73.6062 157.476 73.6153 157.184 73.6153C156.957 74.1897 156.731 75.1118 156.504 76.3816C156.245 77.5607 156.018 78.4979 155.823 79.1933C155.629 79.8886 155.354 80.5538 154.997 81.1887C154.9 81.1887 154.761 81.2038 154.579 81.234C154.404 81.2642 154.187 81.2794 153.928 81.2794C153.572 81.2491 152.826 81.234 151.693 81.234L149.603 81.1887L147.027 81.1433L147.173 80.2363H146.055L146.735 76.8805C147.643 71.9827 148.631 67.1515 149.7 62.3868C150.769 57.6281 152.114 52.7394 153.734 47.7208C154.317 47.6603 154.657 47.6301 154.754 47.6301C154.884 47.6301 155.305 47.6452 156.018 47.6754C156.731 47.7057 158.221 47.615 160.489 47.4033C160.618 47.9173 160.699 48.2498 160.732 48.401L161.461 48.3103C161.752 49.8522 162.773 54.0243 164.522 60.8268C165.17 63.3059 165.511 64.621 165.543 64.7722L169.285 81.1433ZM164.085 63.9559L160.1 47.9022C158.674 48.0231 157.265 48.0836 155.872 48.0836H154.851C154.463 48.0836 154.22 48.0987 154.122 48.1289C152.567 52.9964 151.278 57.7279 150.254 62.3233C149.237 66.9187 148.226 71.8164 147.221 77.0165C147.124 77.5909 147.027 78.1261 146.93 78.6219C146.833 79.1238 146.752 79.5107 146.687 79.7828L146.784 79.8282H147.95L151.79 79.8735C152.114 79.9038 152.502 79.9189 152.956 79.9189C153.312 79.9189 153.523 79.9038 153.588 79.8735L153.734 79.8282C154.025 79.3747 154.252 78.8305 154.414 78.1956C154.576 77.5607 154.754 76.7142 154.949 75.656C155.273 73.963 155.58 72.8293 155.872 72.2548C156.228 72.2548 156.52 72.2458 156.747 72.2276C156.974 72.2155 157.152 72.2095 157.281 72.2095H157.913L158.885 72.3002C159.144 72.8444 159.41 73.6002 159.682 74.5676C159.961 75.5351 160.132 76.1398 160.197 76.3816C160.521 77.8026 160.845 78.9061 161.169 79.6921H161.218C162.481 79.9642 163.81 80.1003 165.203 80.1003C166.013 80.1003 166.855 80.0247 167.73 79.8735V79.8282L164.085 63.9559ZM156.698 66.9489L155.532 66.9036C155.921 64.2129 156.099 62.9884 156.066 63.2303C156.326 61.2047 156.543 59.7293 156.718 58.8042C156.899 57.8851 157.087 57.4256 157.281 57.4256C157.508 57.4256 157.758 58.136 158.03 59.557C158.308 60.9779 158.674 63.4268 159.128 66.9036L156.698 66.9489ZM158.545 66.4501L157.913 61.2803L157.136 66.4501H158.545ZM192.564 58.5593C192.564 60.4942 191.997 62.2991 190.863 63.974C189.729 65.655 188.229 66.9852 186.363 67.9648C184.503 68.9504 182.552 69.4432 180.511 69.4432C179.961 69.4432 179.556 69.428 179.296 69.3978V71.3025C179.296 74.2048 179.345 77.3491 179.442 80.7352C179.118 80.7352 178.665 80.7805 178.081 80.8712C177.855 80.9015 177.359 80.9559 176.594 81.0345C175.836 81.107 175.117 81.1433 174.437 81.1433C172.979 81.1433 171.569 81.0677 170.208 80.9166C170.208 80.4933 170.144 80.2363 170.014 80.1456C169.884 80.0549 169.625 80.0096 169.237 80.0096C169.107 77.077 169.042 71.9071 169.042 64.5001V59.0128C169.042 53.9336 168.994 50.2603 168.896 47.9929C171.359 47.358 173.886 47.0405 176.478 47.0405C179.167 47.0405 181.7 47.4547 184.078 48.2831C186.463 49.1175 188.433 50.3964 189.988 52.1197C191.543 53.8429 192.402 55.9744 192.564 58.5139V58.5593ZM191.106 57.607C190.911 54.0999 189.405 51.5392 186.586 49.9248C183.767 48.3043 180.382 47.494 176.429 47.494C174.129 47.494 171.78 47.7812 169.382 48.3557C169.512 51.7418 169.577 57.1081 169.577 64.4547V72.4362C169.577 74.9758 169.625 77.3642 169.722 79.6014C170.597 79.7224 171.845 79.7828 173.465 79.7828C175.603 79.7828 177.061 79.6619 177.838 79.42L177.984 79.3293C177.887 76.3967 177.838 73.6153 177.838 70.985V69.2164C177.838 68.642 177.822 68.2187 177.79 67.9466C178.373 68.0373 178.956 68.0827 179.539 68.0827C181.354 68.0827 183.158 67.6443 184.953 66.7675C186.755 65.8908 188.229 64.6966 189.376 63.1849C190.529 61.6733 191.106 60.0407 191.106 58.2872V57.607ZM184.108 58.3325C184.108 59.6628 183.563 60.5093 182.475 60.8721C181.393 61.2349 179.944 61.4314 178.13 61.4617L177.061 61.507H176.915C176.656 60.7512 176.526 59.5116 176.526 57.7883C176.526 56.3674 176.51 55.3395 176.478 54.7046C176.672 54.5232 177.352 54.4325 178.519 54.4325C180.139 54.4325 181.499 54.8558 182.601 55.7023C183.087 55.9744 183.46 56.3432 183.719 56.8088C183.978 57.2804 184.108 57.7883 184.108 58.3325ZM179.491 55.793C178.875 55.793 178.357 55.8534 177.936 55.9744C177.968 56.4279 177.984 57.0779 177.984 57.9244V59.2395V60.0105C177.984 60.464 178.017 60.7965 178.081 61.0082H178.324C179.88 61.0082 181.15 60.8328 182.134 60.4821C183.126 60.1375 183.622 59.4058 183.622 58.2872C183.622 57.4104 183.2 56.7755 182.358 56.3825C181.516 55.9895 180.56 55.793 179.491 55.793Z" fill="black" stroke="black" stroke-width="61.8524" stroke-linejoin="round"/>
</g>
</g>
</g>
</g>
</g>
</g>
</g>
</mask>
<g mask="url(#mask0_33_2078)">
<g clip-path="url(#clip16_33_2078)">
<path d="M135.499 128.034H84.458C78.2906 128.034 73.2721 122.946 73.2721 116.693V12.3099C73.2721 6.05454 78.2906 0.966553 84.458 0.966553H135.499C141.669 0.966553 146.685 6.05454 146.685 12.3099V116.693C146.685 122.946 141.669 128.034 135.499 128.034ZM84.458 6.26102C81.4197 6.26102 78.9459 8.97443 78.9459 12.3099V116.693C78.9459 120.029 81.4197 122.739 84.458 122.739H135.499C138.537 122.739 141.011 120.029 141.011 116.693V12.3099C141.011 8.97443 138.537 6.26102 135.499 6.26102H84.458Z" fill="black"/>
<path d="M133.845 95.9096H86.1119C85.3595 95.9096 84.6379 95.6307 84.1059 95.1343C83.5739 94.6378 83.275 93.9645 83.275 93.2624V17.721C83.275 17.0189 83.5739 16.3455 84.1059 15.8491C84.6379 15.3526 85.3595 15.0737 86.1119 15.0737H133.845C134.598 15.0737 135.319 15.3526 135.851 15.8491C136.383 16.3455 136.682 17.0189 136.682 17.721V93.2624C136.682 93.9645 136.383 94.6378 135.851 95.1343C135.319 95.6307 134.598 95.9096 133.845 95.9096ZM88.9488 90.6152H131.008V20.3682H88.9488V90.6152Z" fill="black"/>
<path d="M118.793 113.437H101.162C100.409 113.437 99.6876 113.158 99.1556 112.661C98.6235 112.165 98.3247 111.492 98.3247 110.79C98.3247 110.087 98.6235 109.414 99.1556 108.918C99.6876 108.421 100.409 108.142 101.162 108.142H118.793C119.545 108.142 120.267 108.421 120.799 108.918C121.331 109.414 121.63 110.087 121.63 110.79C121.63 111.492 121.331 112.165 120.799 112.661C120.267 113.158 119.545 113.437 118.793 113.437Z" fill="black"/>
<path d="M152.506 89.4874C151.983 89.4869 151.47 89.3513 151.024 89.0956C150.578 88.84 150.217 88.4743 149.98 88.0389C149.743 87.6035 149.64 87.1155 149.682 86.6288C149.723 86.142 149.909 85.6756 150.217 85.281C161.519 70.8244 161.233 51.5764 149.502 37.3819C149.042 36.8259 148.838 36.1222 148.934 35.4257C149.031 34.7291 149.42 34.0968 150.016 33.6679C150.611 33.2389 151.366 33.0484 152.112 33.1382C152.858 33.2281 153.536 33.591 153.996 34.147C167.281 50.221 167.604 72.0263 154.799 88.4021C154.535 88.7386 154.19 89.0123 153.792 89.2009C153.393 89.3895 152.953 89.4877 152.506 89.4874Z" fill="black"/>
<path d="M67.2693 89.2625C66.387 89.2625 65.5189 88.8786 64.9629 88.1612C58.9295 80.3762 55.7225 70.9945 55.8108 61.3873C55.8991 51.7801 59.278 42.4512 65.4537 34.7639C65.6724 34.4758 65.9506 34.2314 66.272 34.0451C66.5935 33.8588 66.9515 33.7345 67.3252 33.6793C67.6989 33.6241 68.0807 33.6392 68.448 33.7238C68.8154 33.8083 69.1609 33.9606 69.4642 34.1716C69.7676 34.3826 70.0226 34.6481 70.2143 34.9525C70.4061 35.2568 70.5306 35.5939 70.5807 35.9439C70.6307 36.2938 70.6052 36.6496 70.5057 36.9902C70.4062 37.3308 70.2347 37.6495 70.0012 37.9273C64.5501 44.7144 61.5676 52.9503 61.4895 61.4318C61.4114 69.9132 64.2418 78.1957 69.5672 85.0692C69.8718 85.4644 70.0538 85.9302 70.0931 86.4156C70.1325 86.901 70.0276 87.3871 69.7901 87.8205C69.5526 88.2539 69.1917 88.6178 68.747 88.8722C68.3022 89.1266 67.7909 89.2616 67.2693 89.2625Z" fill="black"/>
<path d="M163.99 96.3834C163.467 96.3828 162.954 96.2472 162.508 95.9916C162.062 95.7359 161.701 95.3702 161.464 94.9348C161.227 94.4995 161.124 94.0114 161.165 93.5247C161.207 93.038 161.392 92.5715 161.701 92.1769C176.254 73.5642 175.885 48.7702 160.784 30.4831C160.557 30.2078 160.39 29.8934 160.293 29.5579C160.196 29.2223 160.171 28.8723 160.219 28.5276C160.267 28.183 160.387 27.8505 160.573 27.5493C160.758 27.248 161.006 26.9838 161.301 26.7717C161.596 26.5596 161.933 26.4039 162.292 26.3133C162.652 26.2228 163.027 26.1992 163.396 26.2439C163.766 26.2887 164.122 26.4009 164.445 26.5741C164.768 26.7473 165.051 26.9782 165.278 27.2535C181.933 47.4201 182.339 74.766 166.282 95.3006C166.018 95.6367 165.673 95.9099 165.275 96.098C164.877 96.2862 164.436 96.3839 163.99 96.3834Z" fill="black"/>
<path d="M55.7374 96.0922C54.8551 96.0922 53.987 95.7084 53.431 94.991C37.8962 74.8535 38.143 47.9417 54.0466 28.0266C54.2653 27.7384 54.5435 27.4941 54.8649 27.3078C55.1863 27.1215 55.5444 26.9972 55.9181 26.942C56.2918 26.8868 56.6736 26.9019 57.0409 26.9864C57.4083 27.071 57.7538 27.2233 58.0571 27.4343C58.3605 27.6453 58.6155 27.9108 58.8072 28.2152C58.999 28.5195 59.1235 28.8566 59.1736 29.2066C59.2236 29.5565 59.1981 29.9123 59.0986 30.2529C58.9991 30.5935 58.8276 30.9122 58.5941 31.19C44.1799 49.2441 43.9558 73.641 58.0352 91.899C58.3399 92.2941 58.5219 92.76 58.5612 93.2454C58.6005 93.7308 58.4957 94.2169 58.2582 94.6502C58.0207 95.0836 57.6597 95.4475 57.215 95.7019C56.7703 95.9563 56.259 96.0914 55.7374 96.0922Z" fill="black"/>
</g>
</g>
</g>
</g>
</g>
<defs>
<clipPath id="clip0_33_2078">
<rect width="220" height="128" fill="white" transform="translate(0 0.5)"/>
</clipPath>
<clipPath id="clip1_33_2078">
<rect width="219.65" height="128.104" fill="white" transform="translate(0.17514 0.448242)"/>
</clipPath>
<clipPath id="clip2_33_2078">
<rect width="219.65" height="128.104" fill="white" transform="translate(0.17514 0.448242)"/>
</clipPath>
<clipPath id="clip3_33_2078">
<rect width="175.72" height="42.175" fill="white" transform="translate(22.1401 43.4126)"/>
</clipPath>
<clipPath id="clip4_33_2078">
<rect width="175.72" height="42.175" fill="white" transform="translate(22.1401 43.4126)"/>
</clipPath>
<clipPath id="clip5_33_2078">
<rect width="175.72" height="42.175" fill="white" transform="translate(22.1401 43.4126)"/>
</clipPath>
<clipPath id="clip6_33_2078">
<rect width="175.72" height="42.175" fill="white" transform="translate(22.1401 43.4126)"/>
</clipPath>
<clipPath id="clip7_33_2078">
<rect width="175.72" height="42.175" fill="white" transform="translate(22.1401 43.4126)"/>
</clipPath>
<clipPath id="clip8_33_2078">
<rect width="175.72" height="42.175" fill="white" transform="translate(22.1401 43.4126)"/>
</clipPath>
<clipPath id="clip9_33_2078">
<rect width="175.72" height="42.175" fill="white" transform="translate(22.1401 43.4126)"/>
</clipPath>
<clipPath id="clip10_33_2078">
<rect width="175.72" height="42.175" fill="white" transform="translate(22.1401 43.4126)"/>
</clipPath>
<clipPath id="clip11_33_2078">
<rect width="175.72" height="42.175" fill="white" transform="translate(22.1401 43.4126)"/>
</clipPath>
<clipPath id="clip12_33_2078">
<rect width="175.72" height="42.175" fill="white" transform="translate(22.1401 43.4126)"/>
</clipPath>
<clipPath id="clip13_33_2078">
<rect width="175.72" height="42.175" fill="white" transform="translate(22.1401 43.4126)"/>
</clipPath>
<clipPath id="clip14_33_2078">
<rect width="175.72" height="42.175" fill="white" transform="translate(22.1401 43.4126)"/>
</clipPath>
<clipPath id="clip15_33_2078">
<rect width="175.72" height="42.175" fill="white" transform="translate(22.1401 43.4126)"/>
</clipPath>
<clipPath id="clip16_33_2078">
<rect width="136.106" height="127.067" fill="white" transform="translate(41.9472 0.966553)"/>
</clipPath>
</defs>
</svg>
