<svg width="32" height="32" viewBox="0 0 32 32" fill="none" xmlns="http://www.w3.org/2000/svg">
<g id="icon-0" clip-path="url(#clip0_55_1268)">
<g id="Group">
<path id="Vector" d="M21.993 32.002H9.99685C8.54734 32.002 7.36786 30.7205 7.36786 29.1456V2.85506C7.36786 1.27954 8.54734 -0.00195312 9.99685 -0.00195312H21.993C23.4432 -0.00195312 24.622 1.27954 24.622 2.85506V29.1456C24.622 30.7205 23.4432 32.002 21.993 32.002ZM9.99685 1.33154C9.28276 1.33154 8.70136 2.01496 8.70136 2.85506V29.1456C8.70136 29.9857 9.28276 30.6685 9.99685 30.6685H21.993C22.7071 30.6685 23.2885 29.9857 23.2885 29.1456V2.85506C23.2885 2.01496 22.7071 1.33154 21.993 1.33154H9.99685Z" fill="black"/>
<path id="Vector_2" d="M21.6043 23.911H10.3856C10.2087 23.911 10.0391 23.8407 9.9141 23.7157C9.78906 23.5907 9.71881 23.4211 9.71881 23.2442V4.2179C9.71881 4.04106 9.78906 3.87147 9.9141 3.74643C10.0391 3.62139 10.2087 3.55115 10.3856 3.55115H21.6043C21.7811 3.55115 21.9507 3.62139 22.0757 3.74643C22.2008 3.87147 22.271 4.04106 22.271 4.2179V23.2442C22.271 23.4211 22.2008 23.5907 22.0757 23.7157C21.9507 23.8407 21.7811 23.911 21.6043 23.911ZM11.0523 22.5775H20.9375V4.88464H11.0523V22.5775Z" fill="black"/>
<path id="Vector_3" d="M18.0665 28.3255H13.9227C13.7458 28.3255 13.5762 28.2553 13.4512 28.1302C13.3262 28.0052 13.2559 27.8356 13.2559 27.6588C13.2559 27.482 13.3262 27.3124 13.4512 27.1873C13.5762 27.0623 13.7458 26.992 13.9227 26.992H18.0665C18.2433 26.992 18.4129 27.0623 18.538 27.1873C18.663 27.3124 18.7333 27.482 18.7333 27.6588C18.7333 27.8356 18.663 28.0052 18.538 28.1302C18.4129 28.2553 18.2433 28.3255 18.0665 28.3255Z" fill="black"/>
<g id="Group_2">
<path id="Vector_4" d="M25.9902 22.2935C25.8672 22.2933 25.7466 22.2592 25.6419 22.1948C25.5371 22.1304 25.4521 22.0383 25.3964 21.9286C25.3408 21.819 25.3165 21.6961 25.3263 21.5735C25.3361 21.4509 25.3797 21.3334 25.4521 21.234C28.1084 17.5929 28.0411 12.745 25.2841 9.16985C25.176 9.0298 25.1281 8.85256 25.1507 8.67713C25.1733 8.5017 25.2647 8.34245 25.4048 8.2344C25.5448 8.12636 25.7221 8.07837 25.8975 8.101C26.0729 8.12364 26.2322 8.21503 26.3402 8.35508C29.4626 12.4036 29.5386 17.8956 26.5289 22.0201C26.467 22.1049 26.3859 22.1738 26.2923 22.2213C26.1987 22.2688 26.0951 22.2935 25.9902 22.2935Z" fill="black"/>
<path id="Vector_5" d="M5.95703 22.2368C5.74968 22.2368 5.54565 22.1401 5.41497 21.9594C3.99693 19.9986 3.24321 17.6357 3.26397 15.216C3.28472 12.7963 4.07886 10.4466 5.53032 8.51043C5.58171 8.43787 5.64711 8.37632 5.72265 8.3294C5.79819 8.28249 5.88235 8.25116 5.97018 8.23726C6.05801 8.22336 6.14774 8.22717 6.23407 8.24847C6.32041 8.26976 6.40161 8.30811 6.47291 8.36126C6.5442 8.4144 6.60414 8.48128 6.6492 8.55794C6.69427 8.6346 6.72354 8.7195 6.7353 8.80764C6.74706 8.89578 6.74107 8.98538 6.71768 9.07118C6.69429 9.15697 6.65398 9.23722 6.59911 9.3072C5.31793 11.0166 4.61696 13.091 4.59861 15.2272C4.58026 17.3634 5.24548 19.4494 6.4971 21.1807C6.5687 21.2802 6.61147 21.3975 6.62072 21.5198C6.62996 21.642 6.60532 21.7644 6.5495 21.8736C6.49368 21.9828 6.40885 22.0744 6.30433 22.1385C6.1998 22.2026 6.07963 22.2366 5.95703 22.2368Z" fill="black"/>
</g>
<g id="Group_3">
<path id="Vector_6" d="M28.6891 24.0303C28.5662 24.0302 28.4456 23.996 28.3408 23.9317C28.236 23.8673 28.1511 23.7752 28.0954 23.6655C28.0397 23.5558 28.0155 23.4329 28.0253 23.3103C28.0351 23.1877 28.0786 23.0703 28.1511 22.9709C31.5715 18.283 31.4848 12.0382 27.9357 7.43229C27.8823 7.36295 27.8431 7.28376 27.8203 7.19925C27.7975 7.11474 27.7915 7.02657 27.8028 6.93977C27.8141 6.85297 27.8423 6.76923 27.8859 6.69335C27.9296 6.61747 27.9877 6.55092 28.0571 6.49751C28.1264 6.4441 28.2056 6.40487 28.2901 6.38206C28.3746 6.35926 28.4628 6.35332 28.5496 6.36459C28.6364 6.37585 28.7201 6.40411 28.796 6.44774C28.8719 6.49137 28.9384 6.54951 28.9918 6.61886C32.9063 11.6982 33.0017 18.5857 29.2279 23.7576C29.1659 23.8423 29.0848 23.9111 28.9911 23.9585C28.8975 24.0059 28.7941 24.0305 28.6891 24.0303Z" fill="black"/>
<path id="Vector_7" d="M3.2467 23.957C3.03934 23.957 2.83532 23.8603 2.70464 23.6796C-0.946481 18.6077 -0.888474 11.8295 2.84932 6.81356C2.90072 6.741 2.96611 6.67945 3.04165 6.63253C3.11719 6.58562 3.20136 6.55429 3.28919 6.54039C3.37702 6.52649 3.46674 6.5303 3.55308 6.5516C3.63941 6.57289 3.72062 6.61124 3.79191 6.66439C3.8632 6.71754 3.92315 6.78441 3.96821 6.86107C4.01327 6.93773 4.04254 7.02263 4.0543 7.11077C4.06606 7.19891 4.06007 7.28852 4.03668 7.37431C4.0133 7.4601 3.97298 7.54035 3.91812 7.61033C0.530368 12.1576 0.477695 18.3023 3.78677 22.9009C3.85837 23.0004 3.90114 23.1177 3.91038 23.24C3.91963 23.3622 3.89499 23.4847 3.83917 23.5938C3.78335 23.703 3.69852 23.7946 3.59399 23.8587C3.48947 23.9228 3.3693 23.9568 3.2467 23.957Z" fill="black"/>
</g>
</g>
</g>
<defs>
<clipPath id="clip0_55_1268">
<rect width="31.9887" height="32.0039" fill="white" transform="translate(0.00561523 -0.00195312)"/>
</clipPath>
</defs>
</svg>
