<svg width="130" height="32" viewBox="0 0 130 32" fill="none" xmlns="http://www.w3.org/2000/svg">
<g clip-path="url(#clip0_11_3509)">
<g clip-path="url(#clip1_11_3509)">
<g clip-path="url(#clip2_11_3509)">
<g clip-path="url(#clip3_11_3509)">
<g clip-path="url(#clip4_11_3509)">
<g clip-path="url(#clip5_11_3509)">
<g clip-path="url(#clip6_11_3509)">
<g clip-path="url(#clip7_11_3509)">
<path d="M11.7645 15.3823C11.8363 15.3823 11.8722 15.4052 11.8722 15.4509L11.944 15.3823C12.3748 15.1306 13.3441 15.0048 14.8519 15.0048C15.7613 15.0048 16.8383 15.0505 18.0828 15.1421L19.4829 15.2107L19.9137 15.245C19.9137 15.3594 19.9376 15.5767 19.9855 15.897L20.6317 15.9314C20.6556 16.1373 20.7155 16.755 20.8112 17.7845C20.9069 18.8141 20.9548 19.7521 20.9548 20.5986C20.9548 22.0857 20.8591 23.2525 20.6676 24.099V24.0647C20.4522 25.9636 19.5547 27.2974 17.9751 28.0661C16.3955 28.8303 14.4689 29.2123 12.1953 29.2123C10.6157 29.2123 9.23478 28.8348 8.05249 28.0798C6.86541 27.3249 5.95595 26.3068 5.32412 25.0256C4.6875 23.7444 4.36919 22.3259 4.36919 20.7702C4.12986 18.8484 4.01019 16.9609 4.01019 15.1077V13.2546C4.01019 11.3328 4.17294 9.66723 4.49843 8.25791C4.81913 6.85317 5.56584 5.65891 6.73856 4.67514C7.91128 3.69136 9.65839 3.19947 11.9799 3.19947C13.5595 3.19947 15.0146 3.51291 16.3453 4.13978C17.6712 4.77123 18.729 5.65205 19.5188 6.78225C20.3086 7.91702 20.7035 9.22796 20.7035 10.7151C20.7035 10.8066 20.7035 11.0354 20.7035 11.4014C20.7035 11.7675 20.6149 12.042 20.4378 12.225C20.256 12.4081 19.9616 12.4996 19.5547 12.4996H18.1905C18.023 12.4996 17.719 12.5042 17.2787 12.5133C16.8335 12.527 16.2161 12.4767 15.4263 12.3623C15.4023 12.2937 15.3784 12.2022 15.3545 12.0878C15.3305 11.9734 15.2779 11.8864 15.1965 11.827C15.1103 11.772 14.9476 11.7217 14.7083 11.676C14.5168 11.104 14.3612 10.6922 14.2416 10.4405C14.1219 10.1889 13.9185 9.97151 13.6313 9.78848C13.3441 9.60545 12.9372 9.51394 12.4107 9.51394C12.3628 9.51394 12.2192 9.51394 11.9799 9.51394C11.7406 9.51394 11.5563 9.59859 11.427 9.76789C11.293 9.94177 11.1662 10.2232 11.0465 10.6121C10.5918 12.0535 10.3644 14.1583 10.3644 16.9266V18.4022C10.3644 19.3403 10.4123 20.1524 10.508 20.8388C10.6038 21.5252 10.7952 22.12 11.0824 22.6233L11.5132 22.7263H11.4773C11.573 22.7492 11.7286 22.7606 11.944 22.7606C12.5663 22.7606 13.1048 22.6576 13.5595 22.4517H13.5236C13.8586 22.3145 14.098 22.1246 14.2416 21.8821C14.3852 21.6441 14.5168 21.182 14.6365 20.4956H13.9544C13.3561 20.4956 12.8894 20.4384 12.5543 20.324C12.5064 20.0724 12.4538 19.9122 12.3963 19.8436C12.3341 19.7749 12.2503 19.7292 12.145 19.7063C12.0349 19.6834 11.932 19.6606 11.8363 19.6377C11.7406 18.9513 11.6927 18.2306 11.6927 17.4757C11.6927 16.4004 11.6807 15.7026 11.6568 15.3823H11.7645ZM12.0158 15.7598V15.7941C12.0637 16.0915 12.0876 16.3775 12.0876 16.652C12.0876 16.9266 12.0876 17.0982 12.0876 17.1668V18.1277V18.5738C12.0876 18.917 12.1115 19.1915 12.1594 19.3975C12.2073 19.4432 12.3389 19.4661 12.5543 19.4661L14.3134 19.4318H14.5647C14.7083 19.4318 14.8112 19.4707 14.8734 19.5485C14.9308 19.6308 14.9596 19.7978 14.9596 20.0495C14.9596 21.3078 14.6843 22.1314 14.1339 22.5204C13.5834 22.9093 12.8295 23.1038 11.8722 23.1038C10.8431 23.1038 10.149 22.6004 9.79003 21.5938C9.43103 20.5871 9.25153 19.3403 9.25153 17.8532L9.28743 16.2402C9.28743 14.5701 9.38316 13.0075 9.57463 11.5524C9.76609 10.1019 10.0294 9.21652 10.3644 8.89622C10.5559 8.71319 10.7426 8.5988 10.9245 8.55304C11.1016 8.50729 11.3457 8.48441 11.6568 8.48441L12.5543 8.51872C13.1766 8.51872 13.6863 8.81615 14.0836 9.41099C14.4761 10.0058 14.7801 10.6579 14.9955 11.3671C15.7374 11.4586 16.3597 11.5044 16.8622 11.5044C18.5854 11.5044 19.4709 11.4472 19.5188 11.3328L19.5547 11.1269C19.6026 10.6235 19.6265 10.2575 19.6265 10.0287C19.6265 7.96964 18.9085 6.37272 17.4725 5.23795C16.0366 4.10775 14.2057 3.54265 11.9799 3.54265C9.73019 3.54265 8.03095 4.00022 6.88216 4.91536C5.87697 5.60172 5.19967 6.68158 4.85024 8.15496C4.50561 9.63291 4.33329 11.2756 4.33329 13.083L4.36919 15.3823C4.36919 17.9218 4.48885 20.0541 4.72818 21.7791C4.96752 23.5087 5.60892 25.0073 6.6524 26.2747C7.6911 27.5468 9.2994 28.1828 11.4773 28.1828C13.6073 28.1828 15.4382 27.8282 16.9699 27.1189C18.5017 26.4097 19.3752 25.1514 19.5906 23.344C19.7821 22.4975 19.8778 21.3536 19.8778 19.9122C19.8778 18.8598 19.7821 17.4185 19.5906 15.5882L19.4829 15.5539L18.2982 15.4852C17.0058 15.3937 15.8331 15.348 14.7801 15.348C13.392 15.348 12.5064 15.4624 12.1235 15.6911L12.0158 15.7598ZM38.5815 5.36149C38.7012 7.80949 38.761 10.0173 38.761 11.9848C38.761 15.9428 38.5576 19.672 38.1507 23.1724C37.9114 24.9569 37.1216 26.4097 35.7813 27.5308C34.4411 28.6518 32.7777 29.2123 30.7913 29.2123C29.2835 29.2123 27.8356 28.9447 26.4474 28.4093C25.0593 27.8694 23.9225 27.0961 23.037 26.0894C22.1515 25.0828 21.6848 23.916 21.6369 22.589C21.6369 20.9418 21.6608 18.4709 21.7087 15.1764C21.7805 12.6369 21.8164 10.063 21.8164 7.45487C21.8164 5.8305 21.8044 4.6637 21.7805 3.95446C22.3788 3.95446 22.8335 3.94302 23.1447 3.92015L24.6525 3.88583C25.7773 3.88583 26.7466 4.00022 27.5603 4.22901L27.5244 4.74377C27.5962 4.76665 27.7159 4.78953 27.8834 4.81241C28.051 4.83529 28.1826 4.8696 28.2783 4.91536C28.1826 6.63125 28.1347 8.66743 28.1347 11.0239C28.1347 14.3184 28.2903 17.979 28.6014 22.0056V21.937C28.6493 22.1886 28.7618 22.3534 28.9389 22.4311C29.1208 22.5135 29.3553 22.5547 29.6425 22.5547C30.0972 22.5547 30.5041 22.4289 30.8631 22.1772C31.2221 21.9255 31.4614 21.5709 31.5811 21.1133V21.182C31.7007 18.5738 31.7606 15.428 31.7606 11.7446C31.8084 8.40433 31.8563 5.91058 31.9042 4.26332C33.1966 4.0803 34.4291 3.98878 35.6018 3.98878C36.1044 3.98878 36.5233 4.01623 36.8583 4.07114C37.1934 4.13063 37.4806 4.24045 37.7199 4.40059L37.8635 4.67514V4.84672C38.1268 4.91536 38.3182 4.99544 38.4379 5.08695L38.5815 5.36149ZM35.53 4.33196C34.6445 4.33196 33.5556 4.41203 32.2632 4.57218C32.2392 5.53308 32.2153 6.69302 32.1914 8.052C32.1674 9.41556 32.1555 10.4634 32.1555 11.1955C32.1076 15.6568 32.0358 18.9856 31.9401 21.182C31.8204 21.7082 31.538 22.1246 31.0928 22.4311C30.6525 22.7423 30.169 22.8979 29.6425 22.8979C29.1638 22.8979 28.7259 22.7652 28.3286 22.4998C27.9361 22.239 27.668 21.8569 27.5244 21.3536C27.2133 17.7845 27.0577 14.1125 27.0577 10.3376C27.0577 8.16411 27.1056 6.21943 27.2013 4.50355V4.46923C26.5551 4.30908 25.7534 4.22901 24.7961 4.22901L23.2883 4.26332C23.025 4.2862 22.6421 4.29764 22.1395 4.29764H22.1036L22.1395 4.33196L22.1754 7.55783C22.1754 10.0745 22.1395 12.6025 22.0677 15.1421C22.0198 18.4366 21.9959 20.9189 21.9959 22.589C22.0198 23.8016 22.4267 24.8311 23.2165 25.6776C24.0063 26.5241 25.0115 27.1533 26.232 27.5651C27.4526 27.9769 28.733 28.1828 30.0733 28.1828C32.0837 28.1828 33.6992 27.668 34.9197 26.6385C36.1403 25.609 36.8583 24.2134 37.0737 22.4517C37.4806 19.2259 37.684 15.5081 37.684 11.2985C37.684 9.33091 37.6242 7.12314 37.5045 4.67514C37.1216 4.44635 36.4634 4.33196 35.53 4.33196ZM57.2493 11.5044C57.2493 12.9686 56.8305 14.3344 55.9928 15.6019C55.1551 16.874 54.047 17.8806 52.6685 18.6219C51.2947 19.3677 49.8516 19.7406 48.339 19.7406C47.9369 19.7406 47.6378 19.7292 47.4415 19.7063V21.1477C47.4415 23.344 47.4798 25.7234 47.5564 28.2858C47.3171 28.2858 46.9796 28.3201 46.544 28.3887C46.3813 28.4116 46.0175 28.4528 45.4527 28.5122C44.8926 28.5672 44.3589 28.5946 43.8516 28.5946C42.7746 28.5946 41.7359 28.5374 40.7355 28.423C40.7355 28.1027 40.6876 27.9083 40.5919 27.8396C40.4914 27.771 40.2999 27.7367 40.0175 27.7367C39.9217 25.5175 39.8739 21.6052 39.8739 16V11.8475C39.8739 8.00396 39.838 5.22422 39.7662 3.50833C41.5851 3.02788 43.4519 2.78766 45.3665 2.78766C47.3482 2.78766 49.2197 3.10109 50.9812 3.72796C52.7427 4.35941 54.1954 5.32717 55.3394 6.63125C56.493 7.93532 57.1296 9.54826 57.2493 11.4701V11.5044ZM56.1723 10.7837C56.0287 8.12979 54.9134 6.19198 52.8265 4.97027C50.7491 3.74398 48.2505 3.13084 45.3306 3.13084C43.6266 3.13084 41.8914 3.34818 40.1252 3.78287C40.2161 6.34527 40.2616 10.4062 40.2616 15.9657V22.0056C40.2616 23.9274 40.2999 25.7348 40.3765 27.4278C41.0179 27.5193 41.9369 27.5651 43.1336 27.5651C44.7179 27.5651 45.7949 27.4736 46.3645 27.2905L46.4794 27.2219C46.4028 25.0027 46.3645 22.8979 46.3645 20.9074V19.569C46.3645 19.1343 46.355 18.8141 46.3358 18.6081C46.7666 18.6768 47.195 18.7111 47.621 18.7111C48.9661 18.7111 50.3015 18.3794 51.6274 17.7159C52.9581 17.0524 54.047 16.1487 54.8943 15.0048C55.7463 13.8609 56.1723 12.6254 56.1723 11.2985V10.7837ZM51.0028 11.3328C51.0028 12.3394 50.6007 12.98 49.7965 13.2546C48.9972 13.5291 47.9274 13.6778 46.5871 13.7007L45.7973 13.735H45.6896C45.4982 13.1631 45.4024 12.225 45.4024 10.921C45.4024 9.84568 45.3905 9.06781 45.3665 8.58736C45.5101 8.45009 46.0127 8.38145 46.8743 8.38145C48.071 8.38145 49.0761 8.70175 49.8899 9.34235C50.2489 9.54826 50.5241 9.82737 50.7156 10.1797C50.907 10.5366 51.0028 10.921 51.0028 11.3328ZM47.5923 9.41099C47.1328 9.41099 46.7499 9.45674 46.4435 9.54826C46.4674 9.89143 46.4794 10.3833 46.4794 11.0239V12.0191V12.6025C46.4794 12.9457 46.5009 13.1974 46.544 13.3575H46.7235C47.8771 13.3575 48.8177 13.2248 49.5452 12.9594C50.2776 12.6986 50.6438 12.145 50.6438 11.2985C50.6438 10.635 50.3326 10.1545 49.7104 9.85712C49.0881 9.5597 48.3821 9.41099 47.5923 9.41099ZM74.0072 12.3966C72.9542 12.5568 71.9729 12.6369 71.0634 12.6369C69.9386 12.6369 68.9573 12.5225 68.1197 12.2937C68.1436 12.225 68.1556 12.0535 68.1556 11.7789C67.8205 11.7332 67.5692 11.676 67.4017 11.6073C67.4256 11.5387 67.4376 11.39 67.4376 11.1612C67.4376 10.6807 67.3179 10.3604 67.0786 10.2003C66.8393 10.0401 66.5042 9.96007 66.0734 9.96007C65.5947 9.96007 65.1879 10.0973 64.8528 10.3719C64.5177 10.6464 64.3502 11.0468 64.3502 11.573C64.3502 11.9391 64.434 12.1724 64.6015 12.2731C64.7691 12.3783 64.9725 12.4424 65.2118 12.4653C65.4511 12.4881 65.6187 12.511 65.7144 12.5339C67.1983 12.7398 68.6055 13.282 69.9362 14.1606C71.2621 15.0437 72.3271 16.1075 73.1313 17.3521C73.9306 18.6013 74.3303 19.8665 74.3303 21.1477C74.3303 22.6805 73.9713 24.0303 73.2533 25.1972C72.5353 26.364 71.5852 27.2631 70.4029 27.8945C69.2158 28.5214 67.9282 28.8348 66.5401 28.8348C64.9605 28.8348 63.4049 28.4985 61.8732 27.8259C60.3414 27.1487 59.0921 26.2198 58.1252 25.0393C57.1536 23.8633 56.6677 22.5776 56.6677 21.182L56.7036 20.7358V20.2554C57.3498 20.1639 58.0439 20.1181 58.7858 20.1181L60.868 20.1524C61.3466 20.1753 62.0287 20.1868 62.9142 20.1868C62.9142 20.4384 62.9501 20.6672 63.0219 20.8731H63.6322C63.6322 21.4451 63.7639 21.8386 64.0271 22.0536C64.2904 22.2733 64.6853 22.3831 65.2118 22.3831C65.7383 22.3831 66.1811 22.2458 66.5401 21.9713C66.8991 21.6967 67.0786 21.3078 67.0786 20.8045C67.0786 20.0952 66.8034 19.6034 66.2529 19.3288C65.7024 19.0543 65.14 18.8644 64.5656 18.7591C63.9912 18.6585 63.6203 18.5967 63.4527 18.5738L62.9142 18.4709C62.1962 18.3336 61.5979 18.1094 61.1193 17.7982C60.6406 17.4917 60.126 17.0753 59.5756 16.5491C57.9003 15.0162 57.0626 13.1974 57.0626 11.0926C57.0626 9.67409 57.4336 8.37001 58.1755 7.18033C58.9174 5.99065 59.9298 5.04577 61.2126 4.34569C62.4906 3.65018 63.9075 3.30243 65.4631 3.30243C67.0666 3.30243 68.5577 3.58841 69.9362 4.16037C71.31 4.73233 72.4157 5.55596 73.2533 6.63125C74.091 7.70654 74.5098 8.97629 74.5098 10.4405C74.5098 11.0125 74.438 11.6645 74.2944 12.3966H74.0072ZM73.2533 11.3671C73.373 10.7265 73.4328 10.1889 73.4328 9.75416C73.4328 7.71798 72.6741 6.18969 71.1568 5.16931C69.6346 4.15351 67.7368 3.6456 65.4631 3.6456C63.9553 3.6456 62.5911 3.97734 61.3706 4.64082C60.15 5.30429 59.1879 6.208 58.4842 7.35192C57.7758 8.49585 57.4216 9.74272 57.4216 11.0926C57.4216 11.8933 57.6011 12.7558 57.9601 13.6801C58.3191 14.609 58.8696 15.428 59.6115 16.1373C60.3534 16.8465 61.2389 17.2812 62.268 17.4413C62.4834 17.4871 63.1057 17.6061 64.1348 17.7982C65.1639 17.995 65.9729 18.345 66.5616 18.8484C67.1456 19.3517 67.4376 20.0037 67.4376 20.8045C67.4376 21.4451 67.2222 21.9255 66.7914 22.2458C66.3606 22.5661 65.8341 22.7263 65.2118 22.7263C64.5177 22.7263 63.9146 22.5364 63.4025 22.1566C62.8855 21.7814 62.6031 21.2392 62.5552 20.5299C61.8133 20.5299 61.2509 20.5185 60.868 20.4956L58.9294 20.4613C58.2593 20.4613 57.637 20.4956 57.0626 20.5643V21.1477C57.0626 22.4975 57.4934 23.6757 58.355 24.6824C59.2166 25.689 60.3247 26.46 61.6793 26.9954C63.0291 27.5353 64.422 27.8053 65.858 27.8053C67.1743 27.8053 68.3949 27.5239 69.5198 26.9611C70.6446 26.4029 71.5493 25.5678 72.2338 24.4559C72.9135 23.3486 73.2533 22.0285 73.2533 20.4956C73.2533 19.2373 72.9063 18.0522 72.2122 16.9403C71.5182 15.833 70.592 14.9133 69.4336 14.1812C68.2705 13.449 67.0188 13.0144 65.6785 12.8771C64.075 12.7169 63.2732 12.042 63.2732 10.8523C63.2732 10.2346 63.4767 9.75874 63.8835 9.42471C64.2904 9.09526 64.781 8.93054 65.3554 8.93054C66.0255 8.93054 66.6119 9.11356 67.1145 9.47962C67.6171 9.84568 67.8684 10.3261 67.8684 10.921C67.8684 11.1269 67.8564 11.2641 67.8325 11.3328C68.6223 11.5387 69.448 11.6416 70.3096 11.6416C71.0515 11.6416 72.0208 11.5501 73.2174 11.3671H73.2533ZM91.957 28.423C91.0475 28.5832 89.8629 28.6632 88.4029 28.6632C87.3978 28.6632 86.6678 28.6747 86.2131 28.6976L86.1054 27.9769C85.8182 27.9769 85.6147 27.9883 85.4951 28.0112C85.3275 26.7986 85.2198 25.0484 85.172 22.7606C85.1241 21.0905 85.0643 19.855 84.9925 19.0543C84.466 19.0085 84.1429 18.9856 84.0232 18.9856C83.3291 18.9856 82.6949 19.0428 82.1205 19.1572C82.0966 19.5004 82.0846 20.0609 82.0846 20.8388L82.1205 22.8979C82.1445 23.3554 82.1564 24.0303 82.1564 24.9226C82.1564 26.364 82.0726 27.485 81.9051 28.2858C81.4743 28.5374 80.888 28.6632 80.146 28.6632C79.8588 28.6632 79.428 28.6404 78.8537 28.5946C78.2793 28.5489 77.8963 28.526 77.7049 28.526C77.2741 28.526 76.8313 28.6404 76.3766 28.8692L76.3048 27.9083C76.0894 27.954 75.874 28.0455 75.6586 28.1828C75.515 26.5584 75.3834 23.5774 75.2637 19.2396C75.144 14.9064 75.0842 10.9438 75.0842 7.35192C75.0842 5.40725 75.0962 4.06885 75.1201 3.33674L75.6586 3.30243C75.9937 3.37106 76.3167 3.40538 76.6279 3.40538C76.8672 3.40538 77.2741 3.3825 77.8485 3.33674C78.5186 3.29099 79.0451 3.26811 79.428 3.26811C79.7152 3.26811 79.9546 3.32073 80.146 3.42597C80.3375 3.52663 80.4691 3.72568 80.5409 4.0231C80.6845 4.04598 80.8114 4.06886 80.9215 4.09173C81.0268 4.11461 81.1153 4.13749 81.1871 4.16037C81.2829 4.96112 81.3547 6.12792 81.4025 7.66078C81.4983 9.83424 81.6538 11.4701 81.8692 12.5682H82.2641C83.006 12.5682 83.6762 12.5225 84.2745 12.4309H84.5258C84.6694 10.7837 84.7412 9.15932 84.7412 7.55783C84.7412 5.7733 84.7053 4.42347 84.6335 3.50833C85.7823 3.18803 87.1584 3.02788 88.7619 3.02788H89.2645C89.6475 3.02788 89.9825 3.05076 90.2697 3.09652V3.74856C90.5569 3.74856 90.7962 3.76 90.9877 3.78287L91.957 28.423ZM89.9107 3.40538C89.6475 3.3825 89.2645 3.37106 88.7619 3.37106C87.2063 3.37106 85.9498 3.50833 84.9925 3.78287C85.0643 5.15558 85.1002 6.42534 85.1002 7.59214C85.1002 9.26228 85.0164 10.9782 84.8489 12.7398H84.813C83.9753 12.8542 83.1496 12.9114 82.3359 12.9114C81.7615 12.9114 81.2948 12.8656 80.9358 12.7741H80.8999C80.6845 11.6988 80.529 10.0745 80.4332 7.901C80.3854 6.29951 80.2896 4.91536 80.146 3.74856C79.8349 3.65704 79.4041 3.61129 78.8537 3.61129L77.8844 3.6456L76.6997 3.71424L76.3766 3.74856C76.1133 3.74856 75.8501 3.71424 75.5868 3.6456L75.4791 3.67992C75.4552 4.41203 75.4432 5.63603 75.4432 7.35192C75.4432 10.9896 75.4982 14.8675 75.6083 18.9856C75.7136 23.1038 75.8381 25.975 75.9817 27.5994C76.1492 27.5079 76.4125 27.4621 76.7715 27.4621C77.0587 27.4621 77.4895 27.485 78.0639 27.5308C78.5665 27.5994 79.0451 27.6337 79.4998 27.6337C79.8349 27.6337 80.1054 27.6223 80.3112 27.5994C80.5122 27.5765 80.6965 27.5079 80.864 27.3935C80.9837 26.5927 81.0435 25.609 81.0435 24.4422C81.0435 23.5499 81.0316 22.875 81.0076 22.4174L80.9717 20.427C80.9717 19.6949 81.0076 18.9513 81.0794 18.1963C81.7256 18.0362 82.4556 17.9561 83.2693 17.9561C83.8198 17.9561 84.4779 18.0133 85.2438 18.1277L85.2797 18.162C85.3993 19.1 85.4831 20.5871 85.531 22.6233C85.531 24.7281 85.6267 26.3983 85.8182 27.6337H85.8541C86.0455 27.6108 86.3926 27.5994 86.8952 27.5994H88.1875C89.2885 27.5994 90.186 27.5422 90.88 27.4278L89.9107 3.40538ZM108.794 28.5946C107.837 28.7548 107.071 28.8348 106.496 28.8348C105.395 28.8348 104.318 28.7204 103.265 28.4917C103.17 28.2171 103.086 28.0455 103.014 27.9769C102.942 27.9083 102.859 27.8694 102.763 27.8602C102.667 27.8465 102.595 27.8282 102.547 27.8053C102.356 27.2333 102.093 26.3068 101.758 25.0256C101.566 24.2706 101.403 23.7215 101.269 23.3783C101.14 23.0351 101.004 22.8635 100.86 22.8635C100.669 22.8635 100.506 22.8681 100.372 22.8773C100.243 22.891 100.07 22.8979 99.8549 22.8979C99.6874 23.3326 99.5198 24.0304 99.3523 24.9912C99.1609 25.8835 98.9933 26.5927 98.8497 27.1189C98.7061 27.6452 98.5027 28.1485 98.2394 28.6289C98.1676 28.6289 98.0647 28.6404 97.9307 28.6632C97.8015 28.6861 97.6411 28.6976 97.4496 28.6976C97.1864 28.6747 96.6359 28.6632 95.7983 28.6632L94.2546 28.6289L92.3519 28.5946L92.4596 27.9083H91.6339L92.1365 25.3687C92.8066 21.6624 93.5366 18.0064 94.3264 14.4008C95.1162 10.7997 96.1094 7.10026 97.306 3.30243C97.7368 3.25667 97.9881 3.23379 98.0599 3.23379C98.1557 3.23379 98.4668 3.24523 98.9933 3.26811C99.5198 3.29099 100.621 3.22235 102.296 3.0622C102.392 3.45114 102.452 3.7028 102.476 3.81719L103.014 3.74856C103.229 4.91536 103.983 8.07259 105.276 13.2203C105.754 15.0963 106.006 16.0915 106.03 16.2059L108.794 28.5946ZM104.953 15.5882L102.009 3.4397C100.956 3.53121 99.9147 3.57697 98.8856 3.57697H98.1317C97.8445 3.57697 97.665 3.58841 97.5932 3.61129C96.4445 7.29472 95.4919 10.8752 94.7356 14.3527C93.9841 17.8303 93.2374 21.5366 92.4955 25.4717C92.4237 25.9064 92.3519 26.3113 92.2801 26.6865C92.2083 27.0663 92.1485 27.3592 92.1006 27.5651L92.1724 27.5994H93.034L95.8701 27.6337C96.1094 27.6566 96.3966 27.668 96.7317 27.668C96.9949 27.668 97.1505 27.6566 97.1983 27.6337L97.306 27.5994C97.5214 27.2562 97.689 26.8444 97.8086 26.364C97.9283 25.8835 98.0599 25.2429 98.2035 24.4422C98.4429 23.161 98.6702 22.303 98.8856 21.8683C99.1489 21.8683 99.3643 21.8615 99.5318 21.8477C99.6993 21.8386 99.831 21.834 99.9267 21.834H100.393L101.111 21.9026C101.303 22.3145 101.499 22.8864 101.7 23.6185C101.906 24.3506 102.033 24.8082 102.081 24.9912C102.32 26.0665 102.559 26.9016 102.799 27.4964H102.835C103.768 27.7023 104.749 27.8053 105.778 27.8053C106.377 27.8053 106.999 27.7481 107.645 27.6337V27.5994L104.953 15.5882ZM99.4959 17.8532L98.6343 17.8188C98.9215 15.7826 99.0532 14.8561 99.0292 15.0391C99.2207 13.5062 99.381 12.3898 99.5103 11.6897C99.6443 10.9942 99.7831 10.6464 99.9267 10.6464C100.094 10.6464 100.279 11.1841 100.48 12.2594C100.685 13.3347 100.956 15.1878 101.291 17.8188L99.4959 17.8532ZM100.86 17.4757L100.393 13.5634L99.819 17.4757H100.86ZM125.99 11.5044C125.99 12.9686 125.571 14.3344 124.733 15.6019C123.896 16.874 122.788 17.8806 121.409 18.6219C120.035 19.3677 118.594 19.7406 117.087 19.7406C116.68 19.7406 116.381 19.7292 116.189 19.7063V21.1477C116.189 23.344 116.225 25.7234 116.297 28.2858C116.058 28.2858 115.723 28.3201 115.292 28.3887C115.124 28.4116 114.758 28.4528 114.193 28.5122C113.633 28.5672 113.102 28.5946 112.599 28.5946C111.522 28.5946 110.481 28.5374 109.476 28.423C109.476 28.1027 109.428 27.9083 109.332 27.8396C109.237 27.771 109.045 27.7367 108.758 27.7367C108.662 25.5175 108.614 21.6052 108.614 16V11.8475C108.614 8.00396 108.579 5.22422 108.507 3.50833C110.326 3.02788 112.192 2.78766 114.107 2.78766C116.093 2.78766 117.965 3.10109 119.722 3.72796C121.483 4.35941 122.938 5.32717 124.087 6.63125C125.236 7.93532 125.87 9.54826 125.99 11.4701V11.5044ZM124.913 10.7837C124.769 8.12979 123.656 6.19198 121.574 4.97027C119.492 3.74398 116.991 3.13084 114.071 3.13084C112.372 3.13084 110.637 3.34818 108.866 3.78287C108.961 6.34527 109.009 10.4062 109.009 15.9657V22.0056C109.009 23.9274 109.045 25.7348 109.117 27.4278C109.763 27.5193 110.685 27.5651 111.881 27.5651C113.461 27.5651 114.538 27.4736 115.112 27.2905L115.22 27.2219C115.148 25.0027 115.112 22.8979 115.112 20.9074V19.569C115.112 19.1343 115.1 18.8141 115.076 18.6081C115.507 18.6768 115.938 18.7111 116.369 18.7111C117.709 18.7111 119.042 18.3794 120.368 17.7159C121.699 17.0524 122.788 16.1487 123.635 15.0048C124.487 13.8609 124.913 12.6254 124.913 11.2985V10.7837ZM119.743 11.3328C119.743 12.3394 119.341 12.98 118.537 13.2546C117.738 13.5291 116.668 13.6778 115.328 13.7007L114.538 13.735H114.43C114.239 13.1631 114.143 12.225 114.143 10.921C114.143 9.84568 114.131 9.06781 114.107 8.58736C114.251 8.45009 114.753 8.38145 115.615 8.38145C116.811 8.38145 117.817 8.70175 118.63 9.34235C118.989 9.54826 119.265 9.82737 119.456 10.1797C119.648 10.5366 119.743 10.921 119.743 11.3328ZM116.333 9.41099C115.878 9.41099 115.495 9.45674 115.184 9.54826C115.208 9.89143 115.22 10.3833 115.22 11.0239V12.0191V12.6025C115.22 12.9457 115.244 13.1974 115.292 13.3575H115.471C116.62 13.3575 117.558 13.2248 118.286 12.9594C119.018 12.6986 119.384 12.145 119.384 11.2985C119.384 10.635 119.073 10.1545 118.451 9.85712C117.829 9.5597 117.123 9.41099 116.333 9.41099Z" fill="black" stroke="black"/>
</g>
</g>
</g>
</g>
</g>
</g>
</g>
</g>
<defs>
<clipPath id="clip0_11_3509">
<rect width="130" height="32" fill="white"/>
</clipPath>
<clipPath id="clip1_11_3509">
<rect width="129.804" height="31.9155" fill="white" transform="translate(0.0979004 0.0422363)"/>
</clipPath>
<clipPath id="clip2_11_3509">
<rect width="129.804" height="31.9155" fill="white" transform="translate(0.0979004 0.0422363)"/>
</clipPath>
<clipPath id="clip3_11_3509">
<rect width="129.804" height="31.9155" fill="white" transform="translate(0.0979004 0.0422363)"/>
</clipPath>
<clipPath id="clip4_11_3509">
<rect width="129.804" height="31.9155" fill="white" transform="translate(0.0979004 0.0422363)"/>
</clipPath>
<clipPath id="clip5_11_3509">
<rect width="129.804" height="31.9155" fill="white" transform="translate(0.0979004 0.0422363)"/>
</clipPath>
<clipPath id="clip6_11_3509">
<rect width="129.804" height="31.9155" fill="white" transform="translate(0.0979004 0.0422363)"/>
</clipPath>
<clipPath id="clip7_11_3509">
<rect width="129.804" height="31.9155" fill="white" transform="translate(0.0979004 0.0422363)"/>
</clipPath>
</defs>
</svg>
