<svg width="49" height="37" viewBox="0 0 49 37" fill="none" xmlns="http://www.w3.org/2000/svg">
<g id="&#240;&#159;&#166;&#134; icon &#34;Object Group&#34;">
<path id="Vector" d="M47.0303 8.21429C47.647 8.21429 48.147 7.78253 48.147 7.25V1.46429C48.147 0.931759 47.647 0.5 47.0303 0.5H40.33C39.7132 0.5 39.2132 0.931759 39.2132 1.46429V2.42857H9.43382V1.46429C9.43382 0.931759 8.93381 0.5 8.31709 0.5H1.61673C1.00001 0.5 0.5 0.931759 0.5 1.46429V7.25C0.5 7.78253 1.00001 8.21429 1.61673 8.21429H2.73346V28.7857H1.61673C1.00001 28.7857 0.5 29.2175 0.5 29.75V35.5357C0.5 36.0682 1.00001 36.5 1.61673 36.5H8.31709C8.93381 36.5 9.43382 36.0682 9.43382 35.5357V34.5714H39.2132V35.5357C39.2132 36.0682 39.7132 36.5 40.33 36.5H47.0303C47.647 36.5 48.147 36.0682 48.147 35.5357V29.75C48.147 29.2175 47.647 28.7857 47.0303 28.7857H45.9136V8.21429H47.0303ZM42.1912 3.07143H45.1691V5.64286H42.1912V3.07143ZM3.47794 3.07143H6.45588V5.64286H3.47794V3.07143ZM6.45588 33.9286H3.47794V31.3571H6.45588V33.9286ZM45.1691 33.9286H42.1912V31.3571H45.1691V33.9286ZM41.4467 28.7857H40.33C39.7132 28.7857 39.2132 29.2175 39.2132 29.75V30.7143H9.43382V29.75C9.43382 29.2175 8.93381 28.7857 8.31709 28.7857H7.20037V8.21429H8.31709C8.93381 8.21429 9.43382 7.78253 9.43382 7.25V6.28571H39.2132V7.25C39.2132 7.78253 39.7132 8.21429 40.33 8.21429H41.4467V28.7857ZM38.0965 13.3571H30.2794V9.17857C30.2794 8.64596 29.7794 8.21429 29.1627 8.21429H10.5505C9.93384 8.21429 9.43382 8.64596 9.43382 9.17857V22.6786C9.43382 23.2112 9.93384 23.6429 10.5505 23.6429H18.3676V27.8214C18.3676 28.354 18.8677 28.7857 19.4844 28.7857H38.0965C38.7132 28.7857 39.2132 28.354 39.2132 27.8214V14.3214C39.2132 13.7888 38.7132 13.3571 38.0965 13.3571ZM13.1562 11.4286H26.557V20.4286H13.1562V11.4286ZM35.4908 25.5714H22.0901V23.6429H29.1627C29.7794 23.6429 30.2794 23.2112 30.2794 22.6786V16.5714H35.4908V25.5714Z" fill="black"/>
</g>
</svg>
