<svg width="21" height="20" viewBox="0 0 21 20" fill="none" xmlns="http://www.w3.org/2000/svg">
<g id="icon/Fill">
<path id="Vector" d="M13.0078 3.125C11.7296 3.12498 10.4766 3.48091 9.38927 4.15291C8.30193 4.8249 7.42321 5.78641 6.85156 6.92969C6.37437 7.87449 6.12551 8.91809 6.125 9.97656C6.12773 10.1375 6.06976 10.2936 5.96264 10.4137C5.85552 10.5339 5.70708 10.6093 5.54687 10.625C5.46094 10.6315 5.3746 10.6201 5.29328 10.5916C5.21195 10.5631 5.1374 10.5181 5.07431 10.4594C5.01121 10.4007 4.96093 10.3296 4.92664 10.2505C4.89234 10.1715 4.87476 10.0862 4.875 10C4.87532 9.12665 5.0151 8.25895 5.28906 7.42969C5.30735 7.37681 5.3111 7.31999 5.29993 7.26517C5.28876 7.21035 5.26307 7.15953 5.22555 7.11802C5.18804 7.07652 5.14007 7.04584 5.08665 7.0292C5.03323 7.01257 4.97633 7.01058 4.92187 7.02344C3.83818 7.2921 2.87558 7.91574 2.18747 8.79499C1.49937 9.67424 1.12534 10.7585 1.125 11.875C1.125 14.625 3.45312 16.875 6.19531 16.875H13C14.8234 16.876 16.5725 16.1527 17.8625 14.8641C19.1525 13.5755 19.8779 11.8273 19.8789 10.0039C19.8799 8.18054 19.1566 6.43145 17.868 5.1414C16.5794 3.85136 14.8312 3.12604 13.0078 3.125ZM15.4687 12.7891L12.8203 15.4453C12.6995 15.5587 12.5407 15.6228 12.375 15.625C12.209 15.6243 12.0497 15.56 11.9297 15.4453L9.28125 12.7891C9.17352 12.6702 9.11564 12.5144 9.11959 12.354C9.12354 12.1936 9.18902 12.0409 9.30246 11.9275C9.41591 11.814 9.56863 11.7485 9.72902 11.7446C9.88941 11.7406 10.0452 11.7985 10.1641 11.9062L11.75 13.4922V8.75C11.75 8.58424 11.8158 8.42527 11.9331 8.30806C12.0503 8.19085 12.2092 8.125 12.375 8.125C12.5408 8.125 12.6997 8.19085 12.8169 8.30806C12.9342 8.42527 13 8.58424 13 8.75V13.4922L14.5859 11.9062C14.7048 11.7985 14.8606 11.7406 15.021 11.7446C15.1814 11.7485 15.3341 11.814 15.4475 11.9275C15.561 12.0409 15.6265 12.1936 15.6304 12.354C15.6344 12.5144 15.5765 12.6702 15.4687 12.7891Z" fill="white"/>
</g>
</svg>
