<svg width="50" height="36" viewBox="0 0 50 36" fill="none" xmlns="http://www.w3.org/2000/svg">
<g id="&#240;&#159;&#166;&#134; icon &#34;Users&#34;">
<path id="Vector" d="M7.90571 15.4286C10.6289 15.4286 12.8429 13.1223 12.8429 10.2857C12.8429 7.44911 10.6289 5.14286 7.90571 5.14286C5.18257 5.14286 2.96857 7.44911 2.96857 10.2857C2.96857 13.1223 5.18257 15.4286 7.90571 15.4286ZM42.4657 15.4286C45.1889 15.4286 47.4029 13.1223 47.4029 10.2857C47.4029 7.44911 45.1889 5.14286 42.4657 5.14286C39.7426 5.14286 37.5286 7.44911 37.5286 10.2857C37.5286 13.1223 39.7426 15.4286 42.4657 15.4286ZM44.9343 18H39.9971C38.6394 18 37.4129 18.5705 36.518 19.4946C39.6269 21.2705 41.8331 24.4768 42.3114 28.2857H47.4029C48.7683 28.2857 49.8714 27.1366 49.8714 25.7143V23.1429C49.8714 20.3062 47.6574 18 44.9343 18ZM25.1857 18C29.9609 18 33.8257 13.9741 33.8257 9C33.8257 4.02589 29.9609 0 25.1857 0C20.4106 0 16.5457 4.02589 16.5457 9C16.5457 13.9741 20.4106 18 25.1857 18ZM31.1103 20.5714H30.47C28.8654 21.375 27.0834 21.8571 25.1857 21.8571C23.288 21.8571 21.5137 21.375 19.9014 20.5714H19.2611C14.3549 20.5714 10.3743 24.7179 10.3743 29.8286V32.1429C10.3743 34.2723 12.0329 36 14.0771 36H36.2943C38.3386 36 39.9971 34.2723 39.9971 32.1429V29.8286C39.9971 24.7179 36.0166 20.5714 31.1103 20.5714ZM13.8534 19.4946C12.9586 18.5705 11.732 18 10.3743 18H5.43714C2.714 18 0.5 20.3062 0.5 23.1429V25.7143C0.5 27.1366 1.60314 28.2857 2.96857 28.2857H8.05229C8.53829 24.4768 10.7446 21.2705 13.8534 19.4946Z" fill="black"/>
</g>
</svg>
