<svg width="32" height="33" viewBox="0 0 32 33" fill="none" xmlns="http://www.w3.org/2000/svg">
<g id="Groups">
<path id="Vector" d="M8.00004 18C8.00172 18.1318 7.977 18.2626 7.92734 18.3847C7.87768 18.5068 7.80408 18.6177 7.71089 18.7109C7.61769 18.8041 7.50678 18.8776 7.3847 18.9273C7.26262 18.977 7.13183 19.0017 7.00004 19H1.50004C1.31426 18.9985 1.13239 18.9465 0.973866 18.8497C0.815342 18.7528 0.686128 18.6146 0.60004 18.45C0.519987 18.2824 0.487004 18.0961 0.504618 17.9112C0.522231 17.7262 0.58978 17.5495 0.70004 17.4C1.58502 16.212 2.76593 15.2768 4.12504 14.6875C3.54103 14.1529 3.09233 13.4873 2.81585 12.7454C2.53938 12.0035 2.44304 11.2065 2.53477 10.4201C2.6265 9.6337 2.90367 8.88031 3.34347 8.22196C3.78327 7.5636 4.37313 7.0191 5.0645 6.63327C5.75587 6.24744 6.52898 6.03131 7.3202 6.00266C8.11143 5.97402 8.89815 6.13368 9.6156 6.46851C10.3331 6.80334 10.9607 7.30376 11.447 7.92859C11.9333 8.55342 12.2642 9.28479 12.4125 10.0625C12.4495 10.2651 12.4239 10.4741 12.339 10.6617C12.2541 10.8493 12.1141 11.0066 11.9375 11.1125C10.3208 12.0712 9.09123 13.5662 8.46254 15.3375C8.15262 16.1908 7.99605 17.0922 8.00004 18ZM31.3 17.4C30.4151 16.212 29.2341 15.2768 27.875 14.6875C28.459 14.1529 28.9078 13.4873 29.1842 12.7454C29.4607 12.0035 29.557 11.2065 29.4653 10.4201C29.3736 9.6337 29.0964 8.88031 28.6566 8.22196C28.2168 7.5636 27.6269 7.0191 26.9356 6.63327C26.2442 6.24744 25.4711 6.03131 24.6799 6.00266C23.8886 5.97402 23.1019 6.13368 22.3845 6.46851C21.667 6.80334 21.0393 7.30376 20.5531 7.92859C20.0668 8.55342 19.7359 9.28479 19.5875 10.0625C19.5506 10.2651 19.5762 10.4741 19.6611 10.6617C19.7459 10.8493 19.886 11.0066 20.0625 11.1125C21.6814 12.0687 22.9117 13.5646 23.5375 15.3375C23.8475 16.1908 24.004 17.0922 24 18C23.9984 18.1318 24.0231 18.2626 24.0727 18.3847C24.1224 18.5068 24.196 18.6177 24.2892 18.7109C24.3824 18.8041 24.4933 18.8776 24.6154 18.9273C24.7375 18.977 24.8683 19.0017 25 19H30.5C30.6858 19 30.8678 18.9483 31.0258 18.8507C31.1837 18.753 31.3114 18.6133 31.3945 18.4472C31.4775 18.2811 31.5127 18.0952 31.496 17.9102C31.4793 17.7252 31.4115 17.5486 31.3 17.4ZM19.65 22.7625C20.6453 21.9997 21.3765 20.9442 21.741 19.7445C22.1055 18.5447 22.0849 17.2608 21.6821 16.0733C21.2794 14.8858 20.5147 13.8543 19.4956 13.1238C18.4764 12.3933 17.254 12.0004 16 12.0004C14.7461 12.0004 13.5237 12.3933 12.5045 13.1238C11.4854 13.8543 10.7207 14.8858 10.3179 16.0733C9.91519 17.2608 9.89462 18.5447 10.2591 19.7445C10.6236 20.9442 11.3548 21.9997 12.35 22.7625C10.4057 23.6257 8.82939 25.1489 7.90004 27.0625C7.8261 27.2146 7.79298 27.3833 7.80393 27.552C7.81489 27.7208 7.86955 27.8838 7.96254 28.025C8.04909 28.1699 8.17176 28.2898 8.31857 28.3731C8.46537 28.4564 8.63127 28.5001 8.80004 28.5H23.2C23.3688 28.5001 23.5347 28.4564 23.6815 28.3731C23.8283 28.2898 23.951 28.1699 24.0375 28.025C24.1305 27.8838 24.1852 27.7208 24.1961 27.552C24.2071 27.3833 24.174 27.2146 24.1 27.0625C23.1707 25.1489 21.5944 23.6257 19.65 22.7625Z" fill="#111827"/>
</g>
</svg>
