<svg width="32" height="33" viewBox="0 0 32 33" fill="none" xmlns="http://www.w3.org/2000/svg">
<g id="Groups">
<path id="Vector" d="M11.9375 11.1125L11.4275 10.2524C9.61067 11.3297 8.22864 13.0094 7.52136 14.9996C7.17252 15.9613 6.99605 16.977 7.00003 18H1.50706C1.50526 17.9999 1.50348 17.9996 1.50175 17.9992C1.50254 17.9972 1.50359 17.9953 1.50488 17.9935L0.70004 17.4M11.9375 11.1125L11.4229 10.2551C11.4251 10.2538 11.4268 10.2518 11.4279 10.2495L12.339 10.6617L11.4279 10.2495C11.4288 10.2475 11.4292 10.2452 11.4289 10.2429M11.9375 11.1125C10.3208 12.0712 9.09123 13.5662 8.46254 15.3375L11.9375 11.1125ZM11.4289 10.2429C11.4294 10.2453 11.4298 10.2476 11.4303 10.2499L12.4125 10.0625M11.4289 10.2429C11.4289 10.2427 11.4289 10.2424 11.4288 10.2421L12.4125 10.0625M11.4289 10.2429C11.3096 9.62336 11.0454 9.04075 10.6578 8.54275C10.2688 8.04289 9.76667 7.64255 9.1927 7.37469C8.61874 7.10682 7.98936 6.97909 7.35638 7.00201C6.7234 7.02492 6.10492 7.19783 5.55182 7.50649C4.99873 7.81516 4.52684 8.25076 4.175 8.77744C3.82315 9.30413 3.60142 9.90684 3.52803 10.536C3.45465 11.1651 3.53172 11.8027 3.7529 12.3962C3.97408 12.9897 4.33304 13.5222 4.80025 13.9499L5.93801 14.9914L4.52284 15.605C3.3241 16.1247 2.28254 16.9496 1.50198 17.9974L0.70004 17.4M12.4125 10.0625C12.2642 9.28479 11.9333 8.55342 11.447 7.92859C10.9607 7.30376 10.3331 6.80334 9.6156 6.46851C8.89815 6.13368 8.11143 5.97402 7.3202 6.00266C6.52898 6.03131 5.75587 6.24744 5.0645 6.63327C4.37313 7.0191 3.78327 7.5636 3.34347 8.22196C2.90367 8.88031 2.6265 9.6337 2.53477 10.4201C2.44304 11.2065 2.53938 12.0035 2.81585 12.7454C2.9698 13.1585 3.17715 13.548 3.43153 13.9043C3.52922 13.8579 3.6278 13.8132 3.72723 13.77L4.12504 14.6875L3.44983 15.4251C3.35865 15.3417 3.27022 15.2555 3.18464 15.1669C2.21949 15.7373 1.37396 16.4954 0.70004 17.4M12.4125 10.0625L0.60004 18.45C0.519987 18.2824 0.487004 18.0961 0.504618 17.9112C0.522231 17.7262 0.58978 17.5495 0.70004 17.4M30.5 18L30.4981 17.9974C29.7175 16.9496 28.676 16.1247 27.4772 15.605L26.0621 14.9914L27.1998 13.9499C27.667 13.5222 28.026 12.9897 28.2472 12.3962C28.4684 11.8027 28.5454 11.1651 28.472 10.536C28.3987 9.90684 28.1769 9.30413 27.8251 8.77744C27.4732 8.25076 27.0014 7.81516 26.4483 7.50649C25.8952 7.19783 25.2767 7.02492 24.6437 7.00201C24.0107 6.97909 23.3813 7.10682 22.8074 7.37469C22.2334 7.64255 21.7313 8.04289 21.3423 8.54275C20.9547 9.04075 20.6905 9.62336 20.5712 10.2429C20.5709 10.2452 20.5713 10.2475 20.5722 10.2495C20.5731 10.2516 20.5747 10.2534 20.5766 10.2547C20.5768 10.2548 20.5769 10.255 20.5771 10.2551L20.0625 11.1125L30.5 18ZM30.5 18L25 18M30.5 18L25 18M25 18C25.004 16.9773 24.8277 15.9619 24.479 15.0004L25 18ZM19.0417 21.9688L17.7052 22.9932L19.2443 23.6765C20.9687 24.4421 22.3675 25.7915 23.1945 27.487L23.1903 27.4934L23.1863 27.5H8.81376L8.80981 27.4934L8.80559 27.487C9.6326 25.7915 11.0314 24.4421 12.7558 23.6765L14.2949 22.9932L12.9584 21.9688C12.129 21.3332 11.5197 20.4536 11.2159 19.4538C10.9122 18.4539 10.9293 17.3841 11.265 16.3945C11.6006 15.4049 12.2378 14.5454 13.0871 13.9366C13.9364 13.3278 14.9551 13.0004 16 13.0004C17.045 13.0004 18.0637 13.3278 18.913 13.9366C19.7623 14.5454 20.3995 15.4049 20.7351 16.3945C21.0707 17.3841 21.0879 18.4539 20.7842 19.4538C20.4804 20.4536 19.8711 21.3332 19.0417 21.9688ZM8.79937 27.4998L8.79957 27.4994L8.79937 27.4998Z" stroke="black" stroke-width="2"/>
</g>
</svg>
