<svg width="32" height="33" viewBox="0 0 32 33" fill="none" xmlns="http://www.w3.org/2000/svg">
<g id="house-solid 1" clip-path="url(#clip0_227_3181)">
<path id="Vector" d="M30.9937 16.3705L30.9889 16.4195V16.4688C30.9889 17.1385 30.511 17.475 30.2111 17.475H28.4333H27.4294L27.4333 18.4789L27.4722 28.4875C27.4722 28.4881 27.4722 28.4887 27.4722 28.4893C27.4721 28.6145 27.4638 28.7481 27.4493 28.8955L27.4444 28.9445V28.9937V30C27.4444 30.9429 26.7902 31.5 26.2222 31.5H25.3333C25.3006 31.5 25.2829 31.4999 25.2672 31.4995C25.2566 31.4993 25.2519 31.4989 25.2512 31.4989C25.2511 31.4989 25.2511 31.4989 25.2511 31.4989L25.1609 31.4896L25.0699 31.497C25.0387 31.4995 25.0011 31.5 24.9167 31.5H23.1111H21.7778C21.2098 31.5 20.5556 30.9429 20.5556 30V28.5V24.5C20.5556 22.9554 19.4209 21.5 17.7778 21.5H14.2222C12.5791 21.5 11.4444 22.9554 11.4444 24.5V28.5V30C11.4444 30.9429 10.7902 31.5 10.2222 31.5H8.88889H7.11667C7.07705 31.5 7.03112 31.497 6.94146 31.4903L6.85733 31.484L6.77332 31.4919C6.69869 31.4989 6.67871 31.5 6.66667 31.5H5.77778C5.20976 31.5 4.55556 30.9429 4.55556 30V23C4.55556 22.9701 4.5556 22.952 4.55598 22.9359C4.55619 22.9269 4.55644 22.9222 4.55651 22.9208C4.55653 22.9205 4.55654 22.9204 4.55653 22.9204L4.56111 22.8743V22.825V18.475V17.475H3.56111H1.77778C1.43945 17.475 1 17.1638 1 16.4688C1 16.1375 1.0866 15.8864 1.28336 15.6556L15.5002 1.71398L15.5246 1.68998L15.5474 1.66436C15.6237 1.57859 15.6834 1.54946 15.7309 1.53343C15.7918 1.51288 15.8768 1.5 16.0222 1.5C16.2141 1.5 16.3896 1.56332 16.4979 1.66061L30.6746 15.6798L30.6763 15.6814C30.9576 15.9584 31.013 16.175 30.9937 16.3705Z" stroke="black" stroke-width="2"/>
</g>
<defs>
<clipPath id="clip0_227_3181">
<rect width="32" height="32" fill="white" transform="translate(0 0.5)"/>
</clipPath>
</defs>
</svg>
