<svg width="46" height="36" viewBox="0 0 46 36" fill="none" xmlns="http://www.w3.org/2000/svg">
<g id="&#240;&#159;&#166;&#134; icon &#34;Photo Video&#34;">
<path id="Vector" d="M43.25 0H11.75C11.1533 0 10.581 0.237053 10.159 0.65901C9.73705 1.08097 9.5 1.65326 9.5 2.25V9H20.75V4.5H34.25V27H43.25C43.8467 27 44.419 26.7629 44.841 26.341C45.263 25.919 45.5 25.3467 45.5 24.75V2.25C45.5 1.65326 45.263 1.08097 44.841 0.65901C44.419 0.237053 43.8467 0 43.25 0ZM16.8125 7.24219C16.8125 7.41002 16.7458 7.57098 16.6272 7.68965C16.5085 7.80833 16.3475 7.875 16.1797 7.875H14.0703C13.9025 7.875 13.7415 7.80833 13.6228 7.68965C13.5042 7.57098 13.4375 7.41002 13.4375 7.24219V5.13281C13.4375 4.96498 13.5042 4.80402 13.6228 4.68535C13.7415 4.56667 13.9025 4.5 14.0703 4.5H16.1797C16.3475 4.5 16.5085 4.56667 16.6272 4.68535C16.7458 4.80402 16.8125 4.96498 16.8125 5.13281V7.24219ZM41.5625 21.8672C41.5625 22.035 41.4958 22.196 41.3772 22.3147C41.2585 22.4333 41.0975 22.5 40.9297 22.5H38.8203C38.6525 22.5 38.4915 22.4333 38.3729 22.3147C38.2542 22.196 38.1875 22.035 38.1875 21.8672V19.7578C38.1875 19.59 38.2542 19.429 38.3729 19.3103C38.4915 19.1917 38.6525 19.125 38.8203 19.125H40.9297C41.0975 19.125 41.2585 19.1917 41.3772 19.3103C41.4958 19.429 41.5625 19.59 41.5625 19.7578V21.8672ZM41.5625 14.5547C41.5625 14.7225 41.4958 14.8835 41.3772 15.0022C41.2585 15.1208 41.0975 15.1875 40.9297 15.1875H38.8203C38.6525 15.1875 38.4915 15.1208 38.3729 15.0022C38.2542 14.8835 38.1875 14.7225 38.1875 14.5547V12.4453C38.1875 12.2775 38.2542 12.1165 38.3729 11.9978C38.4915 11.8792 38.6525 11.8125 38.8203 11.8125H40.9297C41.0975 11.8125 41.2585 11.8792 41.3772 11.9978C41.4958 12.1165 41.5625 12.2775 41.5625 12.4453V14.5547ZM41.5625 7.24219C41.5625 7.41002 41.4958 7.57098 41.3772 7.68965C41.2585 7.80833 41.0975 7.875 40.9297 7.875H38.8203C38.6525 7.875 38.4915 7.80833 38.3729 7.68965C38.2542 7.57098 38.1875 7.41002 38.1875 7.24219V5.13281C38.1875 4.96498 38.2542 4.80402 38.3729 4.68535C38.4915 4.56667 38.6525 4.5 38.8203 4.5H40.9297C41.0975 4.5 41.2585 4.56667 41.3772 4.68535C41.4958 4.80402 41.5625 4.96498 41.5625 5.13281V7.24219ZM29.75 11.25H2.75C2.15326 11.25 1.58097 11.4871 1.15901 11.909C0.737053 12.331 0.5 12.9033 0.5 13.5L0.5 33.75C0.5 34.3467 0.737053 34.919 1.15901 35.341C1.58097 35.7629 2.15326 36 2.75 36H29.75C30.3467 36 30.919 35.7629 31.341 35.341C31.763 34.919 32 34.3467 32 33.75V13.5C32 12.9033 31.763 12.331 31.341 11.909C30.919 11.4871 30.3467 11.25 29.75 11.25ZM7.25 15.75C7.69501 15.75 8.13002 15.882 8.50003 16.1292C8.87004 16.3764 9.15843 16.7278 9.32873 17.139C9.49903 17.5501 9.54358 18.0025 9.45677 18.439C9.36995 18.8754 9.15566 19.2763 8.84099 19.591C8.52632 19.9057 8.12541 20.12 7.68895 20.2068C7.2525 20.2936 6.8001 20.249 6.38896 20.0787C5.97783 19.9084 5.62643 19.62 5.37919 19.25C5.13196 18.88 5 18.445 5 18C5 17.4033 5.23705 16.831 5.65901 16.409C6.08097 15.9871 6.65326 15.75 7.25 15.75ZM27.5 31.5H5V29.25L9.5 24.75L11.75 27L20.75 18L27.5 24.75V31.5Z" fill="black"/>
</g>
</svg>
