<svg width="32" height="32" viewBox="0 0 32 32" fill="none" xmlns="http://www.w3.org/2000/svg">
<g id="Notification">
<path id="Vector" d="M26.7344 22.4882L26.7353 22.4898C26.8251 22.6443 26.8729 22.8196 26.874 22.9983C26.8751 23.176 26.83 23.3509 26.7431 23.5059C26.6562 23.6566 26.531 23.7816 26.3802 23.8684C26.2285 23.9557 26.0564 24.0011 25.8814 24L25.8814 24H25.875H21H20.0041H20H19H13H12H11.9958H11H6.12498H6.12487C5.94871 24 5.77567 23.9535 5.62327 23.8652C5.47086 23.7768 5.34449 23.6498 5.25696 23.4969C5.16942 23.344 5.12382 23.1708 5.12477 22.9946C5.12572 22.8184 5.17319 22.6457 5.26237 22.4937L5.26239 22.4938L5.2656 22.4882C6.10788 21.0321 7.02498 18.4265 7.02498 14L7.02498 13L7.02498 12.9987C7.0235 11.8185 7.25451 10.6495 7.70481 9.55852C8.15511 8.46754 8.81588 7.47594 9.6494 6.64033C10.4829 5.80472 11.4729 5.14146 12.5627 4.68843C13.6524 4.23548 14.8206 4.00156 16.0006 4H16.0715C20.9691 4.03546 24.975 8.11188 24.975 13.1125V14C24.975 18.4265 25.8921 21.0321 26.7344 22.4882ZM15.9958 29C14.9365 28.9989 13.9207 28.5776 13.1716 27.8284C12.4219 27.0788 12.0005 26.0622 12 25.0021L12 25.0041C12.0044 26.0626 12.4268 27.0764 13.1752 27.8248C13.9236 28.5732 14.9374 28.9956 15.9958 29Z" stroke="black" stroke-width="2"/>
</g>
</svg>
