<svg width="21" height="20" viewBox="0 0 21 20" fill="none" xmlns="http://www.w3.org/2000/svg">
<g id="icon/Fill">
<path id="Vector" d="M10.5 1.875C8.89303 1.875 7.32214 2.35152 5.986 3.24431C4.64985 4.1371 3.60844 5.40605 2.99348 6.8907C2.37852 8.37535 2.21762 10.009 2.53112 11.5851C2.84463 13.1612 3.61846 14.6089 4.75476 15.7452C5.89106 16.8815 7.3388 17.6554 8.91489 17.9689C10.491 18.2824 12.1247 18.1215 13.6093 17.5065C15.094 16.8916 16.3629 15.8502 17.2557 14.514C18.1485 13.1779 18.625 11.607 18.625 10C18.6209 7.84638 17.7635 5.78216 16.2407 4.25932C14.7178 2.73648 12.6536 1.87913 10.5 1.875V1.875ZM14.2031 10.2422C14.1691 10.3179 14.1214 10.3868 14.0625 10.4453L11.4141 13.0938C11.3573 13.1521 11.2892 13.1981 11.214 13.229C11.1387 13.2599 11.0579 13.2751 10.9766 13.2734C10.894 13.2752 10.812 13.2602 10.7355 13.2293C10.6589 13.1984 10.5894 13.1523 10.5313 13.0938C10.4144 12.9766 10.3487 12.8178 10.3487 12.6523C10.3487 12.4868 10.4144 12.3281 10.5313 12.2109L12.1172 10.625H7.375C7.20924 10.625 7.05027 10.5592 6.93306 10.4419C6.81585 10.3247 6.75 10.1658 6.75 10C6.75 9.83424 6.81585 9.67527 6.93306 9.55806C7.05027 9.44085 7.20924 9.375 7.375 9.375H12.1172L10.5313 7.78906C10.4235 7.67017 10.3656 7.51441 10.3696 7.35402C10.3735 7.19363 10.439 7.04091 10.5525 6.92746C10.6659 6.81402 10.8186 6.74854 10.979 6.74459C11.1394 6.74065 11.2952 6.79853 11.4141 6.90625L14.0625 9.55469C14.1214 9.61324 14.1691 9.68208 14.2031 9.75781C14.2657 9.91321 14.2657 10.0868 14.2031 10.2422Z" fill="white"/>
</g>
</svg>
