<svg width="41" height="40" viewBox="0 0 41 40" fill="none" xmlns="http://www.w3.org/2000/svg">
<g id="icon/Fill" clip-path="url(#clip0_252_2064)">
<path id="Vector" d="M24.9217 13.8125L14.3123 24.4219C14.0785 24.6562 13.9473 24.9737 13.9473 25.3047C13.9473 25.6357 14.0785 25.9532 14.3123 26.1875C14.5486 26.4175 14.8654 26.5462 15.1951 26.5462C15.5249 26.5462 15.8416 26.4175 16.0779 26.1875L26.6873 15.5781C26.9028 15.3403 27.0185 15.0288 27.0106 14.708C27.0027 14.3873 26.8718 14.0818 26.6449 13.8549C26.418 13.628 26.1125 13.4971 25.7918 13.4892C25.471 13.4813 25.1595 13.597 24.9217 13.8125Z" fill="#111827"/>
<path id="Vector_2" d="M22.2656 27.0781L17.8437 31.4844C17.2667 32.0687 16.5794 32.5327 15.8217 32.8494C15.064 33.1661 14.2509 33.3292 13.4296 33.3292C12.6084 33.3292 11.7953 33.1661 11.0376 32.8494C10.2799 32.5327 9.59259 32.0687 9.01558 31.4844C7.84675 30.3127 7.19035 28.7253 7.19035 27.0703C7.19035 25.4153 7.84675 23.8279 9.01558 22.6562L13.4218 18.2344C13.6373 17.9966 13.753 17.6851 13.7451 17.3643C13.7372 17.0435 13.6063 16.7381 13.3794 16.5112C13.1525 16.2843 12.8471 16.1533 12.5263 16.1454C12.2055 16.1375 11.894 16.2533 11.6562 16.4687L7.23433 20.8906C5.59331 22.5316 4.67139 24.7574 4.67139 27.0781C4.67139 29.3989 5.59331 31.6246 7.23433 33.2656C8.87536 34.9066 11.1011 35.8286 13.4218 35.8286C15.7426 35.8286 17.9683 34.9066 19.6093 33.2656L24.0312 28.8437C24.265 28.6094 24.3963 28.2919 24.3963 27.9609C24.3963 27.6299 24.265 27.3124 24.0312 27.0781C23.9162 26.9605 23.7789 26.867 23.6273 26.8032C23.4757 26.7394 23.3129 26.7065 23.1484 26.7065C22.9839 26.7065 22.8211 26.7394 22.6695 26.8032C22.5179 26.867 22.3806 26.9605 22.2656 27.0781Z" fill="#111827"/>
<path id="Vector_3" d="M33.7656 6.73437C32.9531 5.92176 31.9884 5.27716 30.9268 4.83737C29.8651 4.39759 28.7272 4.17123 27.5781 4.17123C26.4289 4.17123 25.2911 4.39759 24.2294 4.83737C23.1677 5.27716 22.2031 5.92176 21.3906 6.73437L16.9687 11.1562C16.7533 11.394 16.6375 11.7055 16.6454 12.0263C16.6533 12.3471 16.7842 12.6525 17.0111 12.8794C17.238 13.1063 17.5435 13.2373 17.8643 13.2452C18.185 13.2531 18.4966 13.1373 18.7343 12.9219L23.1562 8.51562C23.7332 7.93123 24.4205 7.46724 25.1782 7.15055C25.936 6.83387 26.749 6.67079 27.5703 6.67079C28.3915 6.67079 29.2046 6.83387 29.9623 7.15055C30.72 7.46724 31.4073 7.93123 31.9843 8.51562C33.1532 9.68728 33.8096 11.2747 33.8096 12.9297C33.8096 14.5847 33.1532 16.1721 31.9843 17.3437L27.5781 21.7656C27.4604 21.8806 27.367 22.0179 27.3031 22.1695C27.2393 22.3211 27.2065 22.4839 27.2065 22.6484C27.2065 22.8129 27.2393 22.9757 27.3031 23.1273C27.367 23.279 27.4604 23.4163 27.5781 23.5312C27.6908 23.65 27.8265 23.7445 27.9769 23.809C28.1274 23.8734 28.2894 23.9065 28.4531 23.9062C28.619 23.906 28.7832 23.8727 28.9361 23.8083C29.089 23.7439 29.2276 23.6497 29.3437 23.5312L33.7656 19.1094C35.4029 17.4664 36.3223 15.2414 36.3223 12.9219C36.3223 10.6023 35.4029 8.37736 33.7656 6.73437Z" fill="#111827"/>
</g>
<defs>
<clipPath id="clip0_252_2064">
<rect width="40" height="40" fill="white" transform="translate(0.5)"/>
</clipPath>
</defs>
</svg>
